<?xml version="1.0" encoding="UTF-8" standalone="no"?>
<svg
   xmlns:dc="http://purl.org/dc/elements/1.1/"
   xmlns:cc="http://creativecommons.org/ns#"
   xmlns:rdf="http://www.w3.org/1999/02/22-rdf-syntax-ns#"
   xmlns:svg="http://www.w3.org/2000/svg"
   xmlns="http://www.w3.org/2000/svg"
   xmlns:sodipodi="http://sodipodi.sourceforge.net/DTD/sodipodi-0.dtd"
   xmlns:inkscape="http://www.inkscape.org/namespaces/inkscape"
   width="61cm"
   height="45cm"
   viewBox="0 -45 61 45"
   version="1.1"
   id="svg6"
   sodipodi:docname="blueprint.svg"
   inkscape:version="0.92.0 r">
  <metadata
     id="metadata12">
    <rdf:RDF>
      <cc:Work
         rdf:about="">
        <dc:format>image/svg+xml</dc:format>
        <dc:type
           rdf:resource="http://purl.org/dc/dcmitype/StillImage" />
        <dc:title>OpenSCAD Model</dc:title>
      </cc:Work>
    </rdf:RDF>
  </metadata>
  <defs
     id="defs10" />
  <sodipodi:namedview
     pagecolor="#ffffff"
     bordercolor="#666666"
     borderopacity="1"
     objecttolerance="10"
     gridtolerance="10"
     guidetolerance="10"
     inkscape:pageopacity="0"
     inkscape:pageshadow="2"
     inkscape:window-width="1920"
     inkscape:window-height="1016"
     id="namedview8"
     showgrid="true"
     inkscape:document-units="cm"
     showguides="false"
     inkscape:showpageshadow="false"
     inkscape:zoom="0.44563044"
     inkscape:cx="1157.2439"
     inkscape:cy="850.3937"
     inkscape:window-x="0"
     inkscape:window-y="27"
     inkscape:window-maximized="1"
     inkscape:current-layer="svg6">
    <inkscape:grid
       type="xygrid"
       id="grid822" />
  </sodipodi:namedview>
  <title
     id="title2">OpenSCAD Model</title>
  <path
     d=" M 33.5,-34.05 L 46.5,-34.05 L 46.5,-31.05 L 61,-31.05 L 61,-44.05 L 31,-44.05  L 31,-31.05 L 33.5,-31.05 z M 59.9843,-41.8005 L 59.9532,-41.8044 L 59.9227,-41.8122 L 59.8936,-41.8238 L 59.866,-41.8389 L 59.8406,-41.8574  L 59.8177,-41.8789 L 59.7977,-41.903 L 59.7809,-41.9296 L 59.7675,-41.958 L 59.7578,-41.9878 L 59.752,-42.0187  L 59.75,-42.05 L 59.752,-42.0813 L 59.7578,-42.1122 L 59.7675,-42.142 L 59.7809,-42.1704 L 59.7977,-42.1969  L 59.8177,-42.2211 L 59.8406,-42.2426 L 59.866,-42.2611 L 59.8936,-42.2762 L 59.9227,-42.2878 L 59.9532,-42.2956  L 59.9843,-42.2995 L 60.0157,-42.2995 L 60.0468,-42.2956 L 60.0773,-42.2878 L 60.1064,-42.2762 L 60.134,-42.2611  L 60.1593,-42.2426 L 60.1822,-42.2211 L 60.2023,-42.1969 L 60.2191,-42.1704 L 60.2324,-42.142 L 60.2421,-42.1122  L 60.248,-42.0813 L 60.25,-42.05 L 60.248,-42.0187 L 60.2421,-41.9878 L 60.2324,-41.958 L 60.2191,-41.9296  L 60.2023,-41.903 L 60.1822,-41.8789 L 60.1593,-41.8574 L 60.134,-41.8389 L 60.1064,-41.8238 L 60.0773,-41.8122  L 60.0468,-41.8044 L 60.0157,-41.8005 z M 31.9843,-41.8005 L 31.9532,-41.8044 L 31.9227,-41.8122 L 31.8936,-41.8238 L 31.866,-41.8389 L 31.8406,-41.8574  L 31.8177,-41.8789 L 31.7977,-41.903 L 31.7809,-41.9296 L 31.7675,-41.958 L 31.7578,-41.9878 L 31.752,-42.0187  L 31.75,-42.05 L 31.752,-42.0813 L 31.7578,-42.1122 L 31.7675,-42.142 L 31.7809,-42.1704 L 31.7977,-42.1969  L 31.8177,-42.2211 L 31.8406,-42.2426 L 31.866,-42.2611 L 31.8936,-42.2762 L 31.9227,-42.2878 L 31.9532,-42.2956  L 31.9843,-42.2995 L 32.0157,-42.2995 L 32.0468,-42.2956 L 32.0773,-42.2878 L 32.1064,-42.2762 L 32.134,-42.2611  L 32.1593,-42.2426 L 32.1822,-42.2211 L 32.2023,-42.1969 L 32.2191,-42.1704 L 32.2324,-42.142 L 32.2421,-42.1122  L 32.248,-42.0813 L 32.25,-42.05 L 32.248,-42.0187 L 32.2421,-41.9878 L 32.2324,-41.958 L 32.2191,-41.9296  L 32.2023,-41.903 L 32.1822,-41.8789 L 32.1593,-41.8574 L 32.134,-41.8389 L 32.1064,-41.8238 L 32.0773,-41.8122  L 32.0468,-41.8044 L 32.0157,-41.8005 z M 55,-34.55 L 55,-35.75 L 56.9,-35.75 L 56.9,-34.55 z M 53.978,-34.8007 L 53.9344,-34.8062 L 53.8918,-34.8171 L 53.851,-34.8333 L 53.8125,-34.8545 L 53.7769,-34.8803  L 53.7449,-34.9104 L 53.7168,-34.9443 L 53.6933,-34.9814 L 53.6746,-35.0211 L 53.661,-35.063 L 53.6528,-35.1061  L 53.65,-35.15 L 53.6528,-35.1939 L 53.661,-35.237 L 53.6746,-35.2788 L 53.6933,-35.3186 L 53.7168,-35.3557  L 53.7449,-35.3896 L 53.7769,-35.4197 L 53.8125,-35.4455 L 53.851,-35.4667 L 53.8918,-35.4829 L 53.9344,-35.4938  L 53.978,-35.4993 L 54.022,-35.4993 L 54.0656,-35.4938 L 54.1082,-35.4829 L 54.149,-35.4667 L 54.1875,-35.4455  L 54.2231,-35.4197 L 54.2551,-35.3896 L 54.2832,-35.3557 L 54.3067,-35.3186 L 54.3254,-35.2788 L 54.339,-35.237  L 54.3472,-35.1939 L 54.35,-35.15 L 54.3472,-35.1061 L 54.339,-35.063 L 54.3254,-35.0211 L 54.3067,-34.9814  L 54.2832,-34.9443 L 54.2551,-34.9104 L 54.2231,-34.8803 L 54.1875,-34.8545 L 54.149,-34.8333 L 54.1082,-34.8171  L 54.0656,-34.8062 L 54.022,-34.8007 z M 54,-32.05 L 54,-33.95 L 56.7,-33.95 L 56.7,-32.05 z M 31.9843,-32.8005 L 31.9532,-32.8044 L 31.9227,-32.8122 L 31.8936,-32.8238 L 31.866,-32.8389 L 31.8406,-32.8574  L 31.8177,-32.8789 L 31.7977,-32.903 L 31.7809,-32.9296 L 31.7675,-32.958 L 31.7578,-32.9878 L 31.752,-33.0187  L 31.75,-33.05 L 31.752,-33.0813 L 31.7578,-33.1122 L 31.7675,-33.142 L 31.7809,-33.1704 L 31.7977,-33.1969  L 31.8177,-33.2211 L 31.8406,-33.2426 L 31.866,-33.2611 L 31.8936,-33.2762 L 31.9227,-33.2878 L 31.9532,-33.2956  L 31.9843,-33.2995 L 32.0157,-33.2995 L 32.0468,-33.2956 L 32.0773,-33.2878 L 32.1064,-33.2762 L 32.134,-33.2611  L 32.1593,-33.2426 L 32.1822,-33.2211 L 32.2023,-33.1969 L 32.2191,-33.1704 L 32.2324,-33.142 L 32.2421,-33.1122  L 32.248,-33.0813 L 32.25,-33.05 L 32.248,-33.0187 L 32.2421,-32.9878 L 32.2324,-32.958 L 32.2191,-32.9296  L 32.2023,-32.903 L 32.1822,-32.8789 L 32.1593,-32.8574 L 32.134,-32.8389 L 32.1064,-32.8238 L 32.0773,-32.8122  L 32.0468,-32.8044 L 32.0157,-32.8005 z M 59.9843,-32.8005 L 59.9532,-32.8044 L 59.9227,-32.8122 L 59.8936,-32.8238 L 59.866,-32.8389 L 59.8406,-32.8574  L 59.8177,-32.8789 L 59.7977,-32.903 L 59.7809,-32.9296 L 59.7675,-32.958 L 59.7578,-32.9878 L 59.752,-33.0187  L 59.75,-33.05 L 59.752,-33.0813 L 59.7578,-33.1122 L 59.7675,-33.142 L 59.7809,-33.1704 L 59.7977,-33.1969  L 59.8177,-33.2211 L 59.8406,-33.2426 L 59.866,-33.2611 L 59.8936,-33.2762 L 59.9227,-33.2878 L 59.9532,-33.2956  L 59.9843,-33.2995 L 60.0157,-33.2995 L 60.0468,-33.2956 L 60.0773,-33.2878 L 60.1064,-33.2762 L 60.134,-33.2611  L 60.1593,-33.2426 L 60.1822,-33.2211 L 60.2023,-33.1969 L 60.2191,-33.1704 L 60.2324,-33.142 L 60.2421,-33.1122  L 60.248,-33.0813 L 60.25,-33.05 L 60.248,-33.0187 L 60.2421,-32.9878 L 60.2324,-32.958 L 60.2191,-32.9296  L 60.2023,-32.903 L 60.1822,-32.8789 L 60.1593,-32.8574 L 60.134,-32.8389 L 60.1064,-32.8238 L 60.0773,-32.8122  L 60.0468,-32.8044 L 60.0157,-32.8005 z M 53.1906,-32.8503 L 53.1719,-32.8526 L 53.1536,-32.8573 L 53.1361,-32.8643 L 53.1196,-32.8733 L 53.1044,-32.8844  L 53.0907,-32.8973 L 53.0786,-32.9118 L 53.0685,-32.9277 L 53.0605,-32.9448 L 53.0547,-32.9627 L 53.0512,-32.9812  L 53.05,-33 L 53.0512,-33.0188 L 53.0547,-33.0373 L 53.0605,-33.0552 L 53.0685,-33.0723 L 53.0786,-33.0882  L 53.0907,-33.1027 L 53.1044,-33.1156 L 53.1196,-33.1266 L 53.1361,-33.1357 L 53.1536,-33.1427 L 53.1719,-33.1473  L 53.1906,-33.1497 L 53.2094,-33.1497 L 53.2281,-33.1473 L 53.2464,-33.1427 L 53.2639,-33.1357 L 53.2804,-33.1266  L 53.2956,-33.1156 L 53.3093,-33.1027 L 53.3214,-33.0882 L 53.3314,-33.0723 L 53.3395,-33.0552 L 53.3453,-33.0373  L 53.3488,-33.0188 L 53.35,-33 L 53.3488,-32.9812 L 53.3453,-32.9627 L 53.3395,-32.9448 L 53.3314,-32.9277  L 53.3214,-32.9118 L 53.3093,-32.8973 L 53.2956,-32.8844 L 53.2804,-32.8733 L 53.2639,-32.8643 L 53.2464,-32.8573  L 53.2281,-32.8526 L 53.2094,-32.8503 z M 57.4906,-32.8203 L 57.4719,-32.8226 L 57.4536,-32.8273 L 57.4361,-32.8343 L 57.4196,-32.8433 L 57.4044,-32.8544  L 57.3907,-32.8673 L 57.3786,-32.8818 L 57.3685,-32.8977 L 57.3605,-32.9148 L 57.3547,-32.9327 L 57.3512,-32.9512  L 57.35,-32.97 L 57.3512,-32.9888 L 57.3547,-33.0073 L 57.3605,-33.0252 L 57.3685,-33.0423 L 57.3786,-33.0582  L 57.3907,-33.0727 L 57.4044,-33.0856 L 57.4196,-33.0966 L 57.4361,-33.1057 L 57.4536,-33.1127 L 57.4719,-33.1173  L 57.4906,-33.1197 L 57.5094,-33.1197 L 57.5281,-33.1173 L 57.5463,-33.1127 L 57.5639,-33.1057 L 57.5804,-33.0966  L 57.5956,-33.0856 L 57.6093,-33.0727 L 57.6214,-33.0582 L 57.6314,-33.0423 L 57.6395,-33.0252 L 57.6453,-33.0073  L 57.6488,-32.9888 L 57.65,-32.97 L 57.6488,-32.9512 L 57.6453,-32.9327 L 57.6395,-32.9148 L 57.6314,-32.8977  L 57.6214,-32.8818 L 57.6093,-32.8673 L 57.5956,-32.8544 L 57.5804,-32.8433 L 57.5639,-32.8343 L 57.5463,-32.8273  L 57.5281,-32.8226 L 57.5094,-32.8203 z M 30,-44.05 L 0,-44.05 L 0,-31.05 L 30,-31.05 z M 0.984299,-41.8005 L 0.95314,-41.8044 L 0.922745,-41.8122 L 0.893555,-41.8238 L 0.866043,-41.8389 L 0.840637,-41.8574  L 0.817749,-41.8789 L 0.797745,-41.903 L 0.780914,-41.9296 L 0.767548,-41.958 L 0.757843,-41.9878 L 0.751968,-42.0187  L 0.75,-42.05 L 0.751968,-42.0813 L 0.757843,-42.1122 L 0.767548,-42.142 L 0.780914,-42.1704 L 0.797745,-42.1969  L 0.817749,-42.2211 L 0.840637,-42.2426 L 0.866043,-42.2611 L 0.893555,-42.2762 L 0.922745,-42.2878 L 0.95314,-42.2956  L 0.984299,-42.2995 L 1.01569,-42.2995 L 1.04684,-42.2956 L 1.07724,-42.2878 L 1.10643,-42.2762 L 1.13394,-42.2611  L 1.15935,-42.2426 L 1.18224,-42.2211 L 1.20224,-42.1969 L 1.21907,-42.1704 L 1.23244,-42.142 L 1.24214,-42.1122  L 1.24802,-42.0813 L 1.25,-42.05 L 1.24802,-42.0187 L 1.24214,-41.9878 L 1.23244,-41.958 L 1.21907,-41.9296  L 1.20224,-41.903 L 1.18224,-41.8789 L 1.15935,-41.8574 L 1.13394,-41.8389 L 1.10643,-41.8238 L 1.07724,-41.8122  L 1.04684,-41.8044 L 1.01569,-41.8005 z M 28.9843,-41.8005 L 28.9532,-41.8044 L 28.9227,-41.8122 L 28.8936,-41.8238 L 28.866,-41.8389 L 28.8406,-41.8574  L 28.8177,-41.8789 L 28.7977,-41.903 L 28.7809,-41.9296 L 28.7675,-41.958 L 28.7578,-41.9878 L 28.752,-42.0187  L 28.75,-42.05 L 28.752,-42.0813 L 28.7578,-42.1122 L 28.7675,-42.142 L 28.7809,-42.1704 L 28.7977,-42.1969  L 28.8177,-42.2211 L 28.8406,-42.2426 L 28.866,-42.2611 L 28.8936,-42.2762 L 28.9227,-42.2878 L 28.9532,-42.2956  L 28.9843,-42.2995 L 29.0157,-42.2995 L 29.0468,-42.2956 L 29.0772,-42.2878 L 29.1064,-42.2762 L 29.134,-42.2611  L 29.1593,-42.2426 L 29.1822,-42.2211 L 29.2022,-42.1969 L 29.2191,-42.1704 L 29.2324,-42.142 L 29.2421,-42.1122  L 29.248,-42.0813 L 29.25,-42.05 L 29.248,-42.0187 L 29.2421,-41.9878 L 29.2324,-41.958 L 29.2191,-41.9296  L 29.2022,-41.903 L 29.1822,-41.8789 L 29.1593,-41.8574 L 29.134,-41.8389 L 29.1064,-41.8238 L 29.0772,-41.8122  L 29.0468,-41.8044 L 29.0157,-41.8005 z M 25.2251,-40.4989 L 25.2562,-40.5945 L 25.299,-40.6854 L 25.3528,-40.7702 L 25.4168,-40.8476 L 25.4901,-40.9164  L 25.5713,-40.9754 L 25.6594,-41.0238 L 25.7528,-41.0608 L 25.8501,-41.0858 L 25.9498,-41.0984 L 26.0502,-41.0984  L 26.1499,-41.0858 L 26.2472,-41.0608 L 26.3406,-41.0238 L 26.4286,-40.9754 L 26.5099,-40.9164 L 26.5832,-40.8476  L 26.6472,-40.7702 L 26.701,-40.6854 L 26.7438,-40.5945 L 26.7749,-40.4989 L 26.7937,-40.4003 L 26.8,-40.3  L 26.7937,-40.1997 L 26.7749,-40.101 L 26.7438,-40.0055 L 26.701,-39.9146 L 26.6472,-39.8298 L 26.5832,-39.7523  L 26.5099,-39.6836 L 26.4286,-39.6245 L 26.3406,-39.5761 L 26.2472,-39.5392 L 26.1499,-39.5142 L 26.0502,-39.5016  L 25.9498,-39.5016 L 25.8501,-39.5142 L 25.7528,-39.5392 L 25.6594,-39.5761 L 25.5713,-39.6245 L 25.4901,-39.6836  L 25.4168,-39.7523 L 25.3528,-39.8298 L 25.299,-39.9146 L 25.2562,-40.0055 L 25.2251,-40.101 L 25.2063,-40.1997  L 25.2,-40.3 L 25.2063,-40.4003 z M 25.4717,-35.9009 L 25.4157,-35.908 L 25.3609,-35.922 L 25.3084,-35.9428 L 25.2589,-35.97 L 25.2132,-36.0033  L 25.172,-36.0419 L 25.1359,-36.0855 L 25.1057,-36.1332 L 25.0816,-36.1843 L 25.0641,-36.2381 L 25.0535,-36.2936  L 25.05,-36.35 L 25.0535,-36.4064 L 25.0641,-36.4619 L 25.0816,-36.5157 L 25.1057,-36.5668 L 25.1359,-36.6145  L 25.172,-36.658 L 25.2132,-36.6967 L 25.2589,-36.7299 L 25.3084,-36.7572 L 25.3609,-36.778 L 25.4157,-36.792  L 25.4717,-36.7991 L 25.5282,-36.7991 L 25.5843,-36.792 L 25.6391,-36.778 L 25.6916,-36.7572 L 25.7411,-36.7299  L 25.7868,-36.6967 L 25.828,-36.658 L 25.864,-36.6145 L 25.8943,-36.5668 L 25.9184,-36.5157 L 25.9359,-36.4619  L 25.9464,-36.4064 L 25.95,-36.35 L 25.9464,-36.2936 L 25.9359,-36.2381 L 25.9184,-36.1843 L 25.8943,-36.1332  L 25.864,-36.0855 L 25.828,-36.0419 L 25.7868,-36.0033 L 25.7411,-35.97 L 25.6916,-35.9428 L 25.6391,-35.922  L 25.5843,-35.908 L 25.5282,-35.9009 z M 23.4717,-35.9009 L 23.4157,-35.908 L 23.3609,-35.922 L 23.3084,-35.9428 L 23.2589,-35.97 L 23.2132,-36.0033  L 23.172,-36.0419 L 23.1359,-36.0855 L 23.1057,-36.1332 L 23.0816,-36.1843 L 23.0641,-36.2381 L 23.0535,-36.2936  L 23.05,-36.35 L 23.0535,-36.4064 L 23.0641,-36.4619 L 23.0816,-36.5157 L 23.1057,-36.5668 L 23.1359,-36.6145  L 23.172,-36.658 L 23.2132,-36.6967 L 23.2589,-36.7299 L 23.3084,-36.7572 L 23.3609,-36.778 L 23.4157,-36.792  L 23.4717,-36.7991 L 23.5282,-36.7991 L 23.5843,-36.792 L 23.6391,-36.778 L 23.6916,-36.7572 L 23.7411,-36.7299  L 23.7868,-36.6967 L 23.828,-36.658 L 23.864,-36.6145 L 23.8943,-36.5668 L 23.9184,-36.5157 L 23.9359,-36.4619  L 23.9464,-36.4064 L 23.95,-36.35 L 23.9464,-36.2936 L 23.9359,-36.2381 L 23.9184,-36.1843 L 23.8943,-36.1332  L 23.864,-36.0855 L 23.828,-36.0419 L 23.7868,-36.0033 L 23.7411,-35.97 L 23.6916,-35.9428 L 23.6391,-35.922  L 23.5843,-35.908 L 23.5282,-35.9009 z M 28.9843,-32.8005 L 28.9532,-32.8044 L 28.9227,-32.8122 L 28.8936,-32.8238 L 28.866,-32.8389 L 28.8406,-32.8574  L 28.8177,-32.8789 L 28.7977,-32.903 L 28.7809,-32.9296 L 28.7675,-32.958 L 28.7578,-32.9878 L 28.752,-33.0187  L 28.75,-33.05 L 28.752,-33.0813 L 28.7578,-33.1122 L 28.7675,-33.142 L 28.7809,-33.1704 L 28.7977,-33.1969  L 28.8177,-33.2211 L 28.8406,-33.2426 L 28.866,-33.2611 L 28.8936,-33.2762 L 28.9227,-33.2878 L 28.9532,-33.2956  L 28.9843,-33.2995 L 29.0157,-33.2995 L 29.0468,-33.2956 L 29.0772,-33.2878 L 29.1064,-33.2762 L 29.134,-33.2611  L 29.1593,-33.2426 L 29.1822,-33.2211 L 29.2022,-33.1969 L 29.2191,-33.1704 L 29.2324,-33.142 L 29.2421,-33.1122  L 29.248,-33.0813 L 29.25,-33.05 L 29.248,-33.0187 L 29.2421,-32.9878 L 29.2324,-32.958 L 29.2191,-32.9296  L 29.2022,-32.903 L 29.1822,-32.8789 L 29.1593,-32.8574 L 29.134,-32.8389 L 29.1064,-32.8238 L 29.0772,-32.8122  L 29.0468,-32.8044 L 29.0157,-32.8005 z M 0.984299,-32.8005 L 0.95314,-32.8044 L 0.922745,-32.8122 L 0.893555,-32.8238 L 0.866043,-32.8389 L 0.840637,-32.8574  L 0.817749,-32.8789 L 0.797745,-32.903 L 0.780914,-32.9296 L 0.767548,-32.958 L 0.757843,-32.9878 L 0.751968,-33.0187  L 0.75,-33.05 L 0.751968,-33.0813 L 0.757843,-33.1122 L 0.767548,-33.142 L 0.780914,-33.1704 L 0.797745,-33.1969  L 0.817749,-33.2211 L 0.840637,-33.2426 L 0.866043,-33.2611 L 0.893555,-33.2762 L 0.922745,-33.2878 L 0.95314,-33.2956  L 0.984299,-33.2995 L 1.01569,-33.2995 L 1.04684,-33.2956 L 1.07724,-33.2878 L 1.10643,-33.2762 L 1.13394,-33.2611  L 1.15935,-33.2426 L 1.18224,-33.2211 L 1.20224,-33.1969 L 1.21907,-33.1704 L 1.23244,-33.142 L 1.24214,-33.1122  L 1.24802,-33.0813 L 1.25,-33.05 L 1.24802,-33.0187 L 1.24214,-32.9878 L 1.23244,-32.958 L 1.21907,-32.9296  L 1.20224,-32.903 L 1.18224,-32.8789 L 1.15935,-32.8574 L 1.13394,-32.8389 L 1.10643,-32.8238 L 1.07724,-32.8122  L 1.04684,-32.8044 L 1.01569,-32.8005 z M 23.7749,-40.101 L 23.7438,-40.0055 L 23.701,-39.9146 L 23.6472,-39.8298 L 23.5832,-39.7523 L 23.5099,-39.6836  L 23.4286,-39.6245 L 23.3406,-39.5761 L 23.2472,-39.5392 L 23.1499,-39.5142 L 23.0502,-39.5016 L 22.9498,-39.5016  L 22.8501,-39.5142 L 22.7528,-39.5392 L 22.6594,-39.5761 L 22.5713,-39.6245 L 22.4901,-39.6836 L 22.4168,-39.7523  L 22.3528,-39.8298 L 22.299,-39.9146 L 22.2562,-40.0055 L 22.2251,-40.101 L 22.2063,-40.1997 L 22.2,-40.3  L 22.2063,-40.4003 L 22.2251,-40.4989 L 22.2562,-40.5945 L 22.299,-40.6854 L 22.3528,-40.7702 L 22.4168,-40.8476  L 22.4901,-40.9164 L 22.5713,-40.9754 L 22.6594,-41.0238 L 22.7528,-41.0608 L 22.8501,-41.0858 L 22.9498,-41.0984  L 23.0502,-41.0984 L 23.1499,-41.0858 L 23.2472,-41.0608 L 23.3406,-41.0238 L 23.4286,-40.9754 L 23.5099,-40.9164  L 23.5832,-40.8476 L 23.6472,-40.7702 L 23.701,-40.6854 L 23.7438,-40.5945 L 23.7749,-40.4989 L 23.7937,-40.4003  L 23.8,-40.3 L 23.7937,-40.1997 z M 61,-30 L 31,-30 L 31,-10 L 61,-10 z M 40.3174,-19.6089 L 39.7568,-19.6797 L 39.2094,-19.8202 L 38.684,-20.0283 L 38.1888,-20.3005 L 37.7316,-20.6327  L 37.3196,-21.0195 L 36.9594,-21.455 L 36.6566,-21.9321 L 36.416,-22.4434 L 36.2414,-22.9809 L 36.1355,-23.536  L 36.1,-24.1 L 36.1355,-24.664 L 36.2414,-25.2191 L 36.416,-25.7566 L 36.6566,-26.2679 L 36.9594,-26.745  L 37.3196,-27.1805 L 37.7316,-27.5673 L 38.1888,-27.8995 L 38.684,-28.1717 L 39.2094,-28.3797 L 39.7568,-28.5203  L 40.3174,-28.5911 L 40.8826,-28.5911 L 41.4432,-28.5203 L 41.9906,-28.3797 L 42.516,-28.1717 L 43.0112,-27.8995  L 43.4684,-27.5673 L 43.8804,-27.1805 L 44.2406,-26.745 L 44.5434,-26.2679 L 44.784,-25.7566 L 44.9586,-25.2191  L 45.0645,-24.664 L 45.1,-24.1 L 45.0645,-23.536 L 44.9586,-22.9809 L 44.784,-22.4434 L 44.5434,-21.9321  L 44.2406,-21.455 L 43.8804,-21.0195 L 43.4684,-20.6327 L 43.0112,-20.3005 L 42.516,-20.0283 L 41.9906,-19.8202  L 41.4432,-19.6797 L 40.8826,-19.6089 z M 44.6843,-27.9505 L 44.6532,-27.9544 L 44.6227,-27.9622 L 44.5936,-27.9738 L 44.566,-27.9889 L 44.5406,-28.0074  L 44.5177,-28.0289 L 44.4977,-28.053 L 44.4809,-28.0796 L 44.4675,-28.108 L 44.4579,-28.1378 L 44.452,-28.1687  L 44.45,-28.2 L 44.452,-28.2313 L 44.4579,-28.2622 L 44.4675,-28.292 L 44.4809,-28.3204 L 44.4977,-28.3469  L 44.5177,-28.3711 L 44.5406,-28.3926 L 44.566,-28.4111 L 44.5936,-28.4262 L 44.6227,-28.4378 L 44.6532,-28.4456  L 44.6843,-28.4495 L 44.7157,-28.4495 L 44.7468,-28.4456 L 44.7773,-28.4378 L 44.8064,-28.4262 L 44.834,-28.4111  L 44.8593,-28.3926 L 44.8822,-28.3711 L 44.9023,-28.3469 L 44.9191,-28.3204 L 44.9324,-28.292 L 44.9421,-28.2622  L 44.948,-28.2313 L 44.95,-28.2 L 44.948,-28.1687 L 44.9421,-28.1378 L 44.9324,-28.108 L 44.9191,-28.0796  L 44.9023,-28.053 L 44.8822,-28.0289 L 44.8593,-28.0074 L 44.834,-27.9889 L 44.8064,-27.9738 L 44.7773,-27.9622  L 44.7468,-27.9544 L 44.7157,-27.9505 z M 36.4843,-27.9505 L 36.4532,-27.9544 L 36.4227,-27.9622 L 36.3936,-27.9738 L 36.366,-27.9889 L 36.3406,-28.0074  L 36.3177,-28.0289 L 36.2977,-28.053 L 36.2809,-28.0796 L 36.2675,-28.108 L 36.2578,-28.1378 L 36.252,-28.1687  L 36.25,-28.2 L 36.252,-28.2313 L 36.2578,-28.2622 L 36.2675,-28.292 L 36.2809,-28.3204 L 36.2977,-28.3469  L 36.3177,-28.3711 L 36.3406,-28.3926 L 36.366,-28.4111 L 36.3936,-28.4262 L 36.4227,-28.4378 L 36.4532,-28.4456  L 36.4843,-28.4495 L 36.5157,-28.4495 L 36.5468,-28.4456 L 36.5773,-28.4378 L 36.6064,-28.4262 L 36.634,-28.4111  L 36.6593,-28.3926 L 36.6822,-28.3711 L 36.7023,-28.3469 L 36.7191,-28.3204 L 36.7324,-28.292 L 36.7421,-28.2622  L 36.748,-28.2313 L 36.75,-28.2 L 36.748,-28.1687 L 36.7421,-28.1378 L 36.7324,-28.108 L 36.7191,-28.0796  L 36.7023,-28.053 L 36.6822,-28.0289 L 36.6593,-28.0074 L 36.634,-27.9889 L 36.6064,-27.9738 L 36.5773,-27.9622  L 36.5468,-27.9544 L 36.5157,-27.9505 z M 44.6843,-19.7505 L 44.6532,-19.7544 L 44.6227,-19.7622 L 44.5936,-19.7738 L 44.566,-19.7889 L 44.5406,-19.8074  L 44.5177,-19.8289 L 44.4977,-19.853 L 44.4809,-19.8796 L 44.4675,-19.908 L 44.4579,-19.9378 L 44.452,-19.9687  L 44.45,-20 L 44.452,-20.0313 L 44.4579,-20.0622 L 44.4675,-20.092 L 44.4809,-20.1204 L 44.4977,-20.1469  L 44.5177,-20.1711 L 44.5406,-20.1926 L 44.566,-20.2111 L 44.5936,-20.2262 L 44.6227,-20.2378 L 44.6532,-20.2456  L 44.6843,-20.2495 L 44.7157,-20.2495 L 44.7468,-20.2456 L 44.7773,-20.2378 L 44.8064,-20.2262 L 44.834,-20.2111  L 44.8593,-20.1926 L 44.8822,-20.1711 L 44.9023,-20.1469 L 44.9191,-20.1204 L 44.9324,-20.092 L 44.9421,-20.0622  L 44.948,-20.0313 L 44.95,-20 L 44.948,-19.9687 L 44.9421,-19.9378 L 44.9324,-19.908 L 44.9191,-19.8796  L 44.9023,-19.853 L 44.8822,-19.8289 L 44.8593,-19.8074 L 44.834,-19.7889 L 44.8064,-19.7738 L 44.7773,-19.7622  L 44.7468,-19.7544 L 44.7157,-19.7505 z M 36.4843,-19.7505 L 36.4532,-19.7544 L 36.4227,-19.7622 L 36.3936,-19.7738 L 36.366,-19.7889 L 36.3406,-19.8074  L 36.3177,-19.8289 L 36.2977,-19.853 L 36.2809,-19.8796 L 36.2675,-19.908 L 36.2578,-19.9378 L 36.252,-19.9687  L 36.25,-20 L 36.252,-20.0313 L 36.2578,-20.0622 L 36.2675,-20.092 L 36.2809,-20.1204 L 36.2977,-20.1469  L 36.3177,-20.1711 L 36.3406,-20.1926 L 36.366,-20.2111 L 36.3936,-20.2262 L 36.4227,-20.2378 L 36.4532,-20.2456  L 36.4843,-20.2495 L 36.5157,-20.2495 L 36.5468,-20.2456 L 36.5773,-20.2378 L 36.6064,-20.2262 L 36.634,-20.2111  L 36.6593,-20.1926 L 36.6822,-20.1711 L 36.7023,-20.1469 L 36.7191,-20.1204 L 36.7324,-20.092 L 36.7421,-20.0622  L 36.748,-20.0313 L 36.75,-20 L 36.748,-19.9687 L 36.7421,-19.9378 L 36.7324,-19.908 L 36.7191,-19.8796  L 36.7023,-19.853 L 36.6822,-19.8289 L 36.6593,-19.8074 L 36.634,-19.7889 L 36.6064,-19.7738 L 36.5773,-19.7622  L 36.5468,-19.7544 L 36.5157,-19.7505 z M 55.9309,-15.4022 L 55.7939,-15.4195 L 55.6601,-15.4538 L 55.5316,-15.5047 L 55.4106,-15.5712 L 55.2988,-15.6524  L 55.1981,-15.747 L 55.1101,-15.8534 L 55.0361,-15.9701 L 54.9772,-16.0951 L 54.9346,-16.2264 L 54.9087,-16.3621  L 54.9,-16.5 L 54.9087,-16.6379 L 54.9346,-16.7736 L 54.9772,-16.9049 L 55.0361,-17.0299 L 55.1101,-17.1466  L 55.1981,-17.253 L 55.2988,-17.3476 L 55.4106,-17.4288 L 55.5316,-17.4953 L 55.6601,-17.5462 L 55.7939,-17.5805  L 55.9309,-17.5978 L 56.0691,-17.5978 L 56.2061,-17.5805 L 56.3399,-17.5462 L 56.4684,-17.4953 L 56.5894,-17.4288  L 56.7012,-17.3476 L 56.8019,-17.253 L 56.8899,-17.1466 L 56.9639,-17.0299 L 57.0228,-16.9049 L 57.0654,-16.7736  L 57.0913,-16.6379 L 57.1,-16.5 L 57.0913,-16.3621 L 57.0654,-16.2264 L 57.0228,-16.0951 L 56.9639,-15.9701  L 56.8899,-15.8534 L 56.8019,-15.747 L 56.7012,-15.6524 L 56.5894,-15.5712 L 56.4684,-15.5047 L 56.3399,-15.4538  L 56.2061,-15.4195 L 56.0691,-15.4022 z M 54.4843,-16.2505 L 54.4532,-16.2544 L 54.4227,-16.2622 L 54.3936,-16.2738 L 54.366,-16.2889 L 54.3406,-16.3074  L 54.3177,-16.3289 L 54.2977,-16.353 L 54.2809,-16.3796 L 54.2675,-16.408 L 54.2578,-16.4378 L 54.252,-16.4687  L 54.25,-16.5 L 54.252,-16.5313 L 54.2578,-16.5622 L 54.2675,-16.592 L 54.2809,-16.6204 L 54.2977,-16.6469  L 54.3177,-16.6711 L 54.3406,-16.6926 L 54.366,-16.7111 L 54.3936,-16.7262 L 54.4227,-16.7378 L 54.4532,-16.7456  L 54.4843,-16.7495 L 54.5157,-16.7495 L 54.5468,-16.7456 L 54.5773,-16.7378 L 54.6064,-16.7262 L 54.634,-16.7111  L 54.6593,-16.6926 L 54.6822,-16.6711 L 54.7023,-16.6469 L 54.7191,-16.6204 L 54.7324,-16.592 L 54.7421,-16.5622  L 54.748,-16.5313 L 54.75,-16.5 L 54.748,-16.4687 L 54.7421,-16.4378 L 54.7324,-16.408 L 54.7191,-16.3796  L 54.7023,-16.353 L 54.6822,-16.3289 L 54.6593,-16.3074 L 54.634,-16.2889 L 54.6064,-16.2738 L 54.5773,-16.2622  L 54.5468,-16.2544 L 54.5157,-16.2505 z M 57.4843,-16.2505 L 57.4532,-16.2544 L 57.4227,-16.2622 L 57.3936,-16.2738 L 57.366,-16.2889 L 57.3406,-16.3074  L 57.3177,-16.3289 L 57.2977,-16.353 L 57.2809,-16.3796 L 57.2675,-16.408 L 57.2578,-16.4378 L 57.252,-16.4687  L 57.25,-16.5 L 57.252,-16.5313 L 57.2578,-16.5622 L 57.2675,-16.592 L 57.2809,-16.6204 L 57.2977,-16.6469  L 57.3177,-16.6711 L 57.3406,-16.6926 L 57.366,-16.7111 L 57.3936,-16.7262 L 57.4227,-16.7378 L 57.4532,-16.7456  L 57.4843,-16.7495 L 57.5157,-16.7495 L 57.5468,-16.7456 L 57.5773,-16.7378 L 57.6064,-16.7262 L 57.634,-16.7111  L 57.6593,-16.6926 L 57.6822,-16.6711 L 57.7023,-16.6469 L 57.7191,-16.6204 L 57.7324,-16.592 L 57.7421,-16.5622  L 57.748,-16.5313 L 57.75,-16.5 L 57.748,-16.4687 L 57.7421,-16.4378 L 57.7324,-16.408 L 57.7191,-16.3796  L 57.7023,-16.353 L 57.6822,-16.3289 L 57.6593,-16.3074 L 57.634,-16.2889 L 57.6064,-16.2738 L 57.5773,-16.2622  L 57.5468,-16.2544 L 57.5157,-16.2505 z M 30,-30 L 0,-30 L 0,-10 L 30,-10 z M 14.6906,-29.5503 L 14.6719,-29.5526 L 14.6536,-29.5573 L 14.6361,-29.5643 L 14.6196,-29.5733 L 14.6044,-29.5844  L 14.5907,-29.5973 L 14.5786,-29.6118 L 14.5685,-29.6277 L 14.5605,-29.6448 L 14.5547,-29.6627 L 14.5512,-29.6812  L 14.55,-29.7 L 14.5512,-29.7188 L 14.5547,-29.7373 L 14.5605,-29.7552 L 14.5685,-29.7723 L 14.5786,-29.7882  L 14.5907,-29.8027 L 14.6044,-29.8156 L 14.6196,-29.8266 L 14.6361,-29.8357 L 14.6536,-29.8427 L 14.6719,-29.8473  L 14.6906,-29.8497 L 14.7094,-29.8497 L 14.7281,-29.8473 L 14.7463,-29.8427 L 14.7639,-29.8357 L 14.7804,-29.8266  L 14.7956,-29.8156 L 14.8093,-29.8027 L 14.8214,-29.7882 L 14.8314,-29.7723 L 14.8395,-29.7552 L 14.8453,-29.7373  L 14.8488,-29.7188 L 14.85,-29.7 L 14.8488,-29.6812 L 14.8453,-29.6627 L 14.8395,-29.6448 L 14.8314,-29.6277  L 14.8214,-29.6118 L 14.8093,-29.5973 L 14.7956,-29.5844 L 14.7804,-29.5733 L 14.7639,-29.5643 L 14.7463,-29.5573  L 14.7281,-29.5526 L 14.7094,-29.5503 z M 3.29057,-29.5503 L 3.27188,-29.5526 L 3.25365,-29.5573 L 3.23613,-29.5643 L 3.21962,-29.5733 L 3.20438,-29.5844  L 3.19064,-29.5973 L 3.17863,-29.6118 L 3.16855,-29.6277 L 3.16052,-29.6448 L 3.15471,-29.6627 L 3.15117,-29.6812  L 3.14999,-29.7 L 3.15117,-29.7188 L 3.15471,-29.7373 L 3.16052,-29.7552 L 3.16855,-29.7723 L 3.17863,-29.7882  L 3.19064,-29.8027 L 3.20438,-29.8156 L 3.21962,-29.8266 L 3.23613,-29.8357 L 3.25365,-29.8427 L 3.27188,-29.8473  L 3.29057,-29.8497 L 3.30942,-29.8497 L 3.32809,-29.8473 L 3.34634,-29.8427 L 3.36386,-29.8357 L 3.38037,-29.8266  L 3.3956,-29.8156 L 3.40933,-29.8027 L 3.42134,-29.7882 L 3.43144,-29.7723 L 3.43945,-29.7552 L 3.44528,-29.7373  L 3.44881,-29.7188 L 3.45,-29.7 L 3.44881,-29.6812 L 3.44528,-29.6627 L 3.43945,-29.6448 L 3.43144,-29.6277  L 3.42134,-29.6118 L 3.40933,-29.5973 L 3.3956,-29.5844 L 3.38037,-29.5733 L 3.36386,-29.5643 L 3.34634,-29.5573  L 3.32809,-29.5526 L 3.30942,-29.5503 z M 28.9843,-28.7505 L 28.9532,-28.7544 L 28.9227,-28.7622 L 28.8936,-28.7738 L 28.866,-28.7889 L 28.8406,-28.8074  L 28.8177,-28.8289 L 28.7977,-28.853 L 28.7809,-28.8796 L 28.7675,-28.908 L 28.7578,-28.9378 L 28.752,-28.9687  L 28.75,-29 L 28.752,-29.0313 L 28.7578,-29.0622 L 28.7675,-29.092 L 28.7809,-29.1204 L 28.7977,-29.1469  L 28.8177,-29.1711 L 28.8406,-29.1926 L 28.866,-29.2111 L 28.8936,-29.2262 L 28.9227,-29.2378 L 28.9532,-29.2456  L 28.9843,-29.2495 L 29.0157,-29.2495 L 29.0468,-29.2456 L 29.0772,-29.2378 L 29.1064,-29.2262 L 29.134,-29.2111  L 29.1593,-29.1926 L 29.1822,-29.1711 L 29.2022,-29.1469 L 29.2191,-29.1204 L 29.2324,-29.092 L 29.2421,-29.0622  L 29.248,-29.0313 L 29.25,-29 L 29.248,-28.9687 L 29.2421,-28.9378 L 29.2324,-28.908 L 29.2191,-28.8796  L 29.2022,-28.853 L 29.1822,-28.8289 L 29.1593,-28.8074 L 29.134,-28.7889 L 29.1064,-28.7738 L 29.0772,-28.7622  L 29.0468,-28.7544 L 29.0157,-28.7505 z M 0.984299,-28.7505 L 0.95314,-28.7544 L 0.922745,-28.7622 L 0.893555,-28.7738 L 0.866043,-28.7889 L 0.840637,-28.8074  L 0.817749,-28.8289 L 0.797745,-28.853 L 0.780914,-28.8796 L 0.767548,-28.908 L 0.757843,-28.9378 L 0.751968,-28.9687  L 0.75,-29 L 0.751968,-29.0313 L 0.757843,-29.0622 L 0.767548,-29.092 L 0.780914,-29.1204 L 0.797745,-29.1469  L 0.817749,-29.1711 L 0.840637,-29.1926 L 0.866043,-29.2111 L 0.893555,-29.2262 L 0.922745,-29.2378 L 0.95314,-29.2456  L 0.984299,-29.2495 L 1.01569,-29.2495 L 1.04684,-29.2456 L 1.07724,-29.2378 L 1.10643,-29.2262 L 1.13394,-29.2111  L 1.15935,-29.1926 L 1.18224,-29.1711 L 1.20224,-29.1469 L 1.21907,-29.1204 L 1.23244,-29.092 L 1.24214,-29.0622  L 1.24802,-29.0313 L 1.25,-29 L 1.24802,-28.9687 L 1.24214,-28.9378 L 1.23244,-28.908 L 1.21907,-28.8796  L 1.20224,-28.853 L 1.18224,-28.8289 L 1.15935,-28.8074 L 1.13394,-28.7889 L 1.10643,-28.7738 L 1.07724,-28.7622  L 1.04684,-28.7544 L 1.01569,-28.7505 z M 2.34058,-27.5503 L 2.32188,-27.5526 L 2.30363,-27.5573 L 2.28613,-27.5643 L 2.26962,-27.5733 L 2.25438,-27.5844  L 2.24065,-27.5973 L 2.22864,-27.6118 L 2.21855,-27.6277 L 2.21053,-27.6448 L 2.20471,-27.6627 L 2.20117,-27.6812  L 2.2,-27.7 L 2.20117,-27.7188 L 2.20471,-27.7373 L 2.21053,-27.7552 L 2.21855,-27.7723 L 2.22864,-27.7882  L 2.24065,-27.8027 L 2.25438,-27.8156 L 2.26962,-27.8266 L 2.28613,-27.8357 L 2.30363,-27.8427 L 2.32188,-27.8473  L 2.34058,-27.8497 L 2.35941,-27.8497 L 2.3781,-27.8473 L 2.39635,-27.8427 L 2.41386,-27.8357 L 2.43036,-27.8266  L 2.4456,-27.8156 L 2.45934,-27.8027 L 2.47134,-27.7882 L 2.48145,-27.7723 L 2.48946,-27.7552 L 2.49529,-27.7373  L 2.49881,-27.7188 L 2.5,-27.7 L 2.49881,-27.6812 L 2.49529,-27.6627 L 2.48946,-27.6448 L 2.48145,-27.6277  L 2.47134,-27.6118 L 2.45934,-27.5973 L 2.4456,-27.5844 L 2.43036,-27.5733 L 2.41386,-27.5643 L 2.39635,-27.5573  L 2.3781,-27.5526 L 2.35941,-27.5503 z M 18.6406,-27.5503 L 18.6219,-27.5526 L 18.6036,-27.5573 L 18.5861,-27.5643 L 18.5696,-27.5733 L 18.5544,-27.5844  L 18.5406,-27.5973 L 18.5286,-27.6118 L 18.5186,-27.6277 L 18.5105,-27.6448 L 18.5047,-27.6627 L 18.5012,-27.6812  L 18.5,-27.7 L 18.5012,-27.7188 L 18.5047,-27.7373 L 18.5105,-27.7552 L 18.5186,-27.7723 L 18.5286,-27.7882  L 18.5406,-27.8027 L 18.5544,-27.8156 L 18.5696,-27.8266 L 18.5861,-27.8357 L 18.6036,-27.8427 L 18.6219,-27.8473  L 18.6406,-27.8497 L 18.6594,-27.8497 L 18.6781,-27.8473 L 18.6964,-27.8427 L 18.7139,-27.8357 L 18.7304,-27.8266  L 18.7456,-27.8156 L 18.7593,-27.8027 L 18.7713,-27.7882 L 18.7814,-27.7723 L 18.7895,-27.7552 L 18.7953,-27.7373  L 18.7988,-27.7188 L 18.8,-27.7 L 18.7988,-27.6812 L 18.7953,-27.6627 L 18.7895,-27.6448 L 18.7814,-27.6277  L 18.7713,-27.6118 L 18.7593,-27.5973 L 18.7456,-27.5844 L 18.7304,-27.5733 L 18.7139,-27.5643 L 18.6964,-27.5573  L 18.6781,-27.5526 L 18.6594,-27.5503 z M 27.1406,-27.5003 L 27.1219,-27.5027 L 27.1036,-27.5073 L 27.0861,-27.5143 L 27.0696,-27.5233 L 27.0544,-27.5344  L 27.0406,-27.5473 L 27.0286,-27.5618 L 27.0186,-27.5777 L 27.0105,-27.5948 L 27.0047,-27.6127 L 27.0012,-27.6312  L 27,-27.65 L 27.0012,-27.6688 L 27.0047,-27.6873 L 27.0105,-27.7052 L 27.0186,-27.7223 L 27.0286,-27.7382  L 27.0406,-27.7527 L 27.0544,-27.7656 L 27.0696,-27.7766 L 27.0861,-27.7857 L 27.1036,-27.7926 L 27.1219,-27.7973  L 27.1406,-27.7997 L 27.1594,-27.7997 L 27.1781,-27.7973 L 27.1964,-27.7926 L 27.2139,-27.7857 L 27.2304,-27.7766  L 27.2456,-27.7656 L 27.2593,-27.7527 L 27.2713,-27.7382 L 27.2814,-27.7223 L 27.2895,-27.7052 L 27.2953,-27.6873  L 27.2988,-27.6688 L 27.3,-27.65 L 27.2988,-27.6312 L 27.2953,-27.6127 L 27.2895,-27.5948 L 27.2814,-27.5777  L 27.2713,-27.5618 L 27.2593,-27.5473 L 27.2456,-27.5344 L 27.2304,-27.5233 L 27.2139,-27.5143 L 27.1964,-27.5073  L 27.1781,-27.5027 L 27.1594,-27.5003 z M 3.29057,-27.1503 L 3.27188,-27.1526 L 3.25365,-27.1573 L 3.23613,-27.1643 L 3.21962,-27.1733 L 3.20438,-27.1844  L 3.19064,-27.1973 L 3.17863,-27.2118 L 3.16855,-27.2277 L 3.16052,-27.2448 L 3.15471,-27.2627 L 3.15117,-27.2812  L 3.14999,-27.3 L 3.15117,-27.3188 L 3.15471,-27.3373 L 3.16052,-27.3552 L 3.16855,-27.3723 L 3.17863,-27.3882  L 3.19064,-27.4027 L 3.20438,-27.4156 L 3.21962,-27.4266 L 3.23613,-27.4357 L 3.25365,-27.4427 L 3.27188,-27.4473  L 3.29057,-27.4497 L 3.30942,-27.4497 L 3.32809,-27.4473 L 3.34634,-27.4427 L 3.36386,-27.4357 L 3.38037,-27.4266  L 3.3956,-27.4156 L 3.40933,-27.4027 L 3.42134,-27.3882 L 3.43144,-27.3723 L 3.43945,-27.3552 L 3.44528,-27.3373  L 3.44881,-27.3188 L 3.45,-27.3 L 3.44881,-27.2812 L 3.44528,-27.2627 L 3.43945,-27.2448 L 3.43144,-27.2277  L 3.42134,-27.2118 L 3.40933,-27.1973 L 3.3956,-27.1844 L 3.38037,-27.1733 L 3.36386,-27.1643 L 3.34634,-27.1573  L 3.32809,-27.1526 L 3.30942,-27.1503 z M 14.6906,-27.1503 L 14.6719,-27.1526 L 14.6536,-27.1573 L 14.6361,-27.1643 L 14.6196,-27.1733 L 14.6044,-27.1844  L 14.5907,-27.1973 L 14.5786,-27.2118 L 14.5685,-27.2277 L 14.5605,-27.2448 L 14.5547,-27.2627 L 14.5512,-27.2812  L 14.55,-27.3 L 14.5512,-27.3188 L 14.5547,-27.3373 L 14.5605,-27.3552 L 14.5685,-27.3723 L 14.5786,-27.3882  L 14.5907,-27.4027 L 14.6044,-27.4156 L 14.6196,-27.4266 L 14.6361,-27.4357 L 14.6536,-27.4427 L 14.6719,-27.4473  L 14.6906,-27.4497 L 14.7094,-27.4497 L 14.7281,-27.4473 L 14.7463,-27.4427 L 14.7639,-27.4357 L 14.7804,-27.4266  L 14.7956,-27.4156 L 14.8093,-27.4027 L 14.8214,-27.3882 L 14.8314,-27.3723 L 14.8395,-27.3552 L 14.8453,-27.3373  L 14.8488,-27.3188 L 14.85,-27.3 L 14.8488,-27.2812 L 14.8453,-27.2627 L 14.8395,-27.2448 L 14.8314,-27.2277  L 14.8214,-27.2118 L 14.8093,-27.1973 L 14.7956,-27.1844 L 14.7804,-27.1733 L 14.7639,-27.1643 L 14.7463,-27.1573  L 14.7281,-27.1526 L 14.7094,-27.1503 z M 18.2406,-25.2503 L 18.2219,-25.2527 L 18.2036,-25.2573 L 18.1861,-25.2643 L 18.1696,-25.2733 L 18.1544,-25.2844  L 18.1407,-25.2973 L 18.1286,-25.3118 L 18.1185,-25.3277 L 18.1105,-25.3448 L 18.1047,-25.3627 L 18.1012,-25.3812  L 18.1,-25.4 L 18.1012,-25.4188 L 18.1047,-25.4373 L 18.1105,-25.4552 L 18.1185,-25.4723 L 18.1286,-25.4882  L 18.1407,-25.5027 L 18.1544,-25.5156 L 18.1696,-25.5266 L 18.1861,-25.5357 L 18.2036,-25.5426 L 18.2219,-25.5473  L 18.2406,-25.5497 L 18.2594,-25.5497 L 18.2781,-25.5473 L 18.2963,-25.5426 L 18.3139,-25.5357 L 18.3304,-25.5266  L 18.3456,-25.5156 L 18.3593,-25.5027 L 18.3714,-25.4882 L 18.3814,-25.4723 L 18.3895,-25.4552 L 18.3953,-25.4373  L 18.3988,-25.4188 L 18.4,-25.4 L 18.3988,-25.3812 L 18.3953,-25.3627 L 18.3895,-25.3448 L 18.3814,-25.3277  L 18.3714,-25.3118 L 18.3593,-25.2973 L 18.3456,-25.2844 L 18.3304,-25.2733 L 18.3139,-25.2643 L 18.2963,-25.2573  L 18.2781,-25.2527 L 18.2594,-25.2503 z M 3.24057,-25.2503 L 3.22188,-25.2527 L 3.20364,-25.2573 L 3.18613,-25.2643 L 3.16962,-25.2733 L 3.15437,-25.2844  L 3.14064,-25.2973 L 3.12865,-25.3118 L 3.11855,-25.3277 L 3.11052,-25.3448 L 3.10471,-25.3627 L 3.10118,-25.3812  L 3.09999,-25.4 L 3.10118,-25.4188 L 3.10471,-25.4373 L 3.11052,-25.4552 L 3.11855,-25.4723 L 3.12865,-25.4882  L 3.14064,-25.5027 L 3.15437,-25.5156 L 3.16962,-25.5266 L 3.18613,-25.5357 L 3.20364,-25.5426 L 3.22188,-25.5473  L 3.24057,-25.5497 L 3.25941,-25.5497 L 3.27811,-25.5473 L 3.29634,-25.5426 L 3.31386,-25.5357 L 3.33037,-25.5266  L 3.34561,-25.5156 L 3.35934,-25.5027 L 3.37134,-25.4882 L 3.38144,-25.4723 L 3.38947,-25.4552 L 3.39528,-25.4373  L 3.3988,-25.4188 L 3.39999,-25.4 L 3.3988,-25.3812 L 3.39528,-25.3627 L 3.38947,-25.3448 L 3.38144,-25.3277  L 3.37134,-25.3118 L 3.35934,-25.2973 L 3.34561,-25.2844 L 3.33037,-25.2733 L 3.31386,-25.2643 L 3.29634,-25.2573  L 3.27811,-25.2527 L 3.25941,-25.2503 z M 4.99057,-24.8503 L 4.97188,-24.8526 L 4.95364,-24.8573 L 4.93613,-24.8643 L 4.91962,-24.8733 L 4.90437,-24.8844  L 4.89064,-24.8973 L 4.87865,-24.9118 L 4.86855,-24.9277 L 4.86052,-24.9448 L 4.85471,-24.9627 L 4.85118,-24.9812  L 4.84999,-25 L 4.85118,-25.0188 L 4.85471,-25.0373 L 4.86052,-25.0552 L 4.86855,-25.0723 L 4.87865,-25.0882  L 4.89064,-25.1027 L 4.90437,-25.1156 L 4.91962,-25.1266 L 4.93613,-25.1357 L 4.95364,-25.1427 L 4.97188,-25.1473  L 4.99057,-25.1497 L 5.00941,-25.1497 L 5.02811,-25.1473 L 5.04634,-25.1427 L 5.06386,-25.1357 L 5.08037,-25.1266  L 5.09561,-25.1156 L 5.10934,-25.1027 L 5.12134,-25.0882 L 5.13144,-25.0723 L 5.13947,-25.0552 L 5.14528,-25.0373  L 5.1488,-25.0188 L 5.14999,-25 L 5.1488,-24.9812 L 5.14528,-24.9627 L 5.13947,-24.9448 L 5.13144,-24.9277  L 5.12134,-24.9118 L 5.10934,-24.8973 L 5.09561,-24.8844 L 5.08037,-24.8733 L 5.06386,-24.8643 L 5.04634,-24.8573  L 5.02811,-24.8526 L 5.00941,-24.8503 z M 14.3406,-24.8503 L 14.3219,-24.8526 L 14.3036,-24.8573 L 14.2861,-24.8643 L 14.2696,-24.8733 L 14.2544,-24.8844  L 14.2406,-24.8973 L 14.2286,-24.9118 L 14.2186,-24.9277 L 14.2105,-24.9448 L 14.2047,-24.9627 L 14.2012,-24.9812  L 14.2,-25 L 14.2012,-25.0188 L 14.2047,-25.0373 L 14.2105,-25.0552 L 14.2186,-25.0723 L 14.2286,-25.0882  L 14.2406,-25.1027 L 14.2544,-25.1156 L 14.2696,-25.1266 L 14.2861,-25.1357 L 14.3036,-25.1427 L 14.3219,-25.1473  L 14.3406,-25.1497 L 14.3594,-25.1497 L 14.3781,-25.1473 L 14.3963,-25.1427 L 14.4139,-25.1357 L 14.4304,-25.1266  L 14.4456,-25.1156 L 14.4593,-25.1027 L 14.4713,-25.0882 L 14.4814,-25.0723 L 14.4895,-25.0552 L 14.4953,-25.0373  L 14.4988,-25.0188 L 14.5,-25 L 14.4988,-24.9812 L 14.4953,-24.9627 L 14.4895,-24.9448 L 14.4814,-24.9277  L 14.4713,-24.9118 L 14.4593,-24.8973 L 14.4456,-24.8844 L 14.4304,-24.8733 L 14.4139,-24.8643 L 14.3963,-24.8573  L 14.3781,-24.8526 L 14.3594,-24.8503 z M 27.1406,-22.3503 L 27.1219,-22.3526 L 27.1036,-22.3573 L 27.0861,-22.3643 L 27.0696,-22.3733 L 27.0544,-22.3844  L 27.0406,-22.3973 L 27.0286,-22.4118 L 27.0186,-22.4277 L 27.0105,-22.4448 L 27.0047,-22.4627 L 27.0012,-22.4812  L 27,-22.5 L 27.0012,-22.5188 L 27.0047,-22.5373 L 27.0105,-22.5552 L 27.0186,-22.5723 L 27.0286,-22.5882  L 27.0406,-22.6027 L 27.0544,-22.6156 L 27.0696,-22.6266 L 27.0861,-22.6357 L 27.1036,-22.6427 L 27.1219,-22.6473  L 27.1406,-22.6497 L 27.1594,-22.6497 L 27.1781,-22.6473 L 27.1964,-22.6427 L 27.2139,-22.6357 L 27.2304,-22.6266  L 27.2456,-22.6156 L 27.2593,-22.6027 L 27.2713,-22.5882 L 27.2814,-22.5723 L 27.2895,-22.5552 L 27.2953,-22.5373  L 27.2988,-22.5188 L 27.3,-22.5 L 27.2988,-22.4812 L 27.2953,-22.4627 L 27.2895,-22.4448 L 27.2814,-22.4277  L 27.2713,-22.4118 L 27.2593,-22.3973 L 27.2456,-22.3844 L 27.2304,-22.3733 L 27.2139,-22.3643 L 27.1964,-22.3573  L 27.1781,-22.3526 L 27.1594,-22.3503 z M 28.3906,-21.0503 L 28.3719,-21.0526 L 28.3536,-21.0573 L 28.3361,-21.0643 L 28.3196,-21.0733 L 28.3044,-21.0844  L 28.2906,-21.0973 L 28.2786,-21.1118 L 28.2686,-21.1277 L 28.2605,-21.1448 L 28.2547,-21.1627 L 28.2512,-21.1812  L 28.25,-21.2 L 28.2512,-21.2188 L 28.2547,-21.2373 L 28.2605,-21.2552 L 28.2686,-21.2723 L 28.2786,-21.2882  L 28.2906,-21.3027 L 28.3044,-21.3156 L 28.3196,-21.3266 L 28.3361,-21.3357 L 28.3536,-21.3427 L 28.3719,-21.3473  L 28.3906,-21.3497 L 28.4094,-21.3497 L 28.4281,-21.3473 L 28.4464,-21.3427 L 28.4639,-21.3357 L 28.4804,-21.3266  L 28.4956,-21.3156 L 28.5093,-21.3027 L 28.5213,-21.2882 L 28.5314,-21.2723 L 28.5395,-21.2552 L 28.5453,-21.2373  L 28.5488,-21.2188 L 28.55,-21.2 L 28.5488,-21.1812 L 28.5453,-21.1627 L 28.5395,-21.1448 L 28.5314,-21.1277  L 28.5213,-21.1118 L 28.5093,-21.0973 L 28.4956,-21.0844 L 28.4804,-21.0733 L 28.4639,-21.0643 L 28.4464,-21.0573  L 28.4281,-21.0526 L 28.4094,-21.0503 z M 24.3906,-21.0503 L 24.3719,-21.0526 L 24.3536,-21.0573 L 24.3361,-21.0643 L 24.3196,-21.0733 L 24.3044,-21.0844  L 24.2906,-21.0973 L 24.2786,-21.1118 L 24.2686,-21.1277 L 24.2605,-21.1448 L 24.2547,-21.1627 L 24.2512,-21.1812  L 24.25,-21.2 L 24.2512,-21.2188 L 24.2547,-21.2373 L 24.2605,-21.2552 L 24.2686,-21.2723 L 24.2786,-21.2882  L 24.2906,-21.3027 L 24.3044,-21.3156 L 24.3196,-21.3266 L 24.3361,-21.3357 L 24.3536,-21.3427 L 24.3719,-21.3473  L 24.3906,-21.3497 L 24.4094,-21.3497 L 24.4281,-21.3473 L 24.4464,-21.3427 L 24.4639,-21.3357 L 24.4804,-21.3266  L 24.4956,-21.3156 L 24.5093,-21.3027 L 24.5213,-21.2882 L 24.5314,-21.2723 L 24.5395,-21.2552 L 24.5453,-21.2373  L 24.5488,-21.2188 L 24.55,-21.2 L 24.5488,-21.1812 L 24.5453,-21.1627 L 24.5395,-21.1448 L 24.5314,-21.1277  L 24.5213,-21.1118 L 24.5093,-21.0973 L 24.4956,-21.0844 L 24.4804,-21.0733 L 24.4639,-21.0643 L 24.4464,-21.0573  L 24.4281,-21.0526 L 24.4094,-21.0503 z M 18.2406,-11.8503 L 18.2219,-11.8526 L 18.2036,-11.8573 L 18.1861,-11.8643 L 18.1696,-11.8733 L 18.1544,-11.8844  L 18.1407,-11.8973 L 18.1286,-11.9118 L 18.1185,-11.9277 L 18.1105,-11.9448 L 18.1047,-11.9627 L 18.1012,-11.9812  L 18.1,-12 L 18.1012,-12.0188 L 18.1047,-12.0373 L 18.1105,-12.0552 L 18.1185,-12.0723 L 18.1286,-12.0882  L 18.1407,-12.1027 L 18.1544,-12.1156 L 18.1696,-12.1266 L 18.1861,-12.1357 L 18.2036,-12.1427 L 18.2219,-12.1473  L 18.2406,-12.1497 L 18.2594,-12.1497 L 18.2781,-12.1473 L 18.2963,-12.1427 L 18.3139,-12.1357 L 18.3304,-12.1266  L 18.3456,-12.1156 L 18.3593,-12.1027 L 18.3714,-12.0882 L 18.3814,-12.0723 L 18.3895,-12.0552 L 18.3953,-12.0373  L 18.3988,-12.0188 L 18.4,-12 L 18.3988,-11.9812 L 18.3953,-11.9627 L 18.3895,-11.9448 L 18.3814,-11.9277  L 18.3714,-11.9118 L 18.3593,-11.8973 L 18.3456,-11.8844 L 18.3304,-11.8733 L 18.3139,-11.8643 L 18.2963,-11.8573  L 18.2781,-11.8526 L 18.2594,-11.8503 z M 3.24057,-11.8503 L 3.22188,-11.8526 L 3.20364,-11.8573 L 3.18613,-11.8643 L 3.16962,-11.8733 L 3.15437,-11.8844  L 3.14064,-11.8973 L 3.12865,-11.9118 L 3.11855,-11.9277 L 3.11052,-11.9448 L 3.10471,-11.9627 L 3.10118,-11.9812  L 3.09999,-12 L 3.10118,-12.0188 L 3.10471,-12.0373 L 3.11052,-12.0552 L 3.11855,-12.0723 L 3.12865,-12.0882  L 3.14064,-12.1027 L 3.15437,-12.1156 L 3.16962,-12.1266 L 3.18613,-12.1357 L 3.20364,-12.1427 L 3.22188,-12.1473  L 3.24057,-12.1497 L 3.25941,-12.1497 L 3.27811,-12.1473 L 3.29634,-12.1427 L 3.31386,-12.1357 L 3.33037,-12.1266  L 3.34561,-12.1156 L 3.35934,-12.1027 L 3.37134,-12.0882 L 3.38144,-12.0723 L 3.38947,-12.0552 L 3.39528,-12.0373  L 3.3988,-12.0188 L 3.39999,-12 L 3.3988,-11.9812 L 3.39528,-11.9627 L 3.38947,-11.9448 L 3.38144,-11.9277  L 3.37134,-11.9118 L 3.35934,-11.8973 L 3.34561,-11.8844 L 3.33037,-11.8733 L 3.31386,-11.8643 L 3.29634,-11.8573  L 3.27811,-11.8526 L 3.25941,-11.8503 z M 0.984299,-10.7505 L 0.95314,-10.7544 L 0.922745,-10.7622 L 0.893555,-10.7738 L 0.866043,-10.7889 L 0.840637,-10.8074  L 0.817749,-10.8289 L 0.797745,-10.853 L 0.780914,-10.8795 L 0.767548,-10.908 L 0.757843,-10.9378 L 0.751968,-10.9687  L 0.75,-11 L 0.751968,-11.0313 L 0.757843,-11.0622 L 0.767548,-11.092 L 0.780914,-11.1204 L 0.797745,-11.1469  L 0.817749,-11.1711 L 0.840637,-11.1926 L 0.866043,-11.2111 L 0.893555,-11.2262 L 0.922745,-11.2378 L 0.95314,-11.2456  L 0.984299,-11.2495 L 1.01569,-11.2495 L 1.04684,-11.2456 L 1.07724,-11.2378 L 1.10643,-11.2262 L 1.13394,-11.2111  L 1.15935,-11.1926 L 1.18224,-11.1711 L 1.20224,-11.1469 L 1.21907,-11.1204 L 1.23244,-11.092 L 1.24214,-11.0622  L 1.24802,-11.0313 L 1.25,-11 L 1.24802,-10.9687 L 1.24214,-10.9378 L 1.23244,-10.908 L 1.21907,-10.8795  L 1.20224,-10.853 L 1.18224,-10.8289 L 1.15935,-10.8074 L 1.13394,-10.7889 L 1.10643,-10.7738 L 1.07724,-10.7622  L 1.04684,-10.7544 L 1.01569,-10.7505 z M 28.9843,-10.7505 L 28.9532,-10.7544 L 28.9227,-10.7622 L 28.8936,-10.7738 L 28.866,-10.7889 L 28.8406,-10.8074  L 28.8177,-10.8289 L 28.7977,-10.853 L 28.7809,-10.8795 L 28.7675,-10.908 L 28.7578,-10.9378 L 28.752,-10.9687  L 28.75,-11 L 28.752,-11.0313 L 28.7578,-11.0622 L 28.7675,-11.092 L 28.7809,-11.1204 L 28.7977,-11.1469  L 28.8177,-11.1711 L 28.8406,-11.1926 L 28.866,-11.2111 L 28.8936,-11.2262 L 28.9227,-11.2378 L 28.9532,-11.2456  L 28.9843,-11.2495 L 29.0157,-11.2495 L 29.0468,-11.2456 L 29.0772,-11.2378 L 29.1064,-11.2262 L 29.134,-11.2111  L 29.1593,-11.1926 L 29.1822,-11.1711 L 29.2022,-11.1469 L 29.2191,-11.1204 L 29.2324,-11.092 L 29.2421,-11.0622  L 29.248,-11.0313 L 29.25,-11 L 29.248,-10.9687 L 29.2421,-10.9378 L 29.2324,-10.908 L 29.2191,-10.8795  L 29.2022,-10.853 L 29.1822,-10.8289 L 29.1593,-10.8074 L 29.134,-10.7889 L 29.1064,-10.7738 L 29.0772,-10.7622  L 29.0468,-10.7544 L 29.0157,-10.7505 z M 25.5,-9 L 0,-9 L 0,-0 L 25.5,-0 z M 4.64058,-8.55029 L 4.62189,-8.55264 L 4.60364,-8.55733 L 4.58612,-8.56427 L 4.56963,-8.57335 L 4.55438,-8.58441  L 4.54065,-8.59731 L 4.52864,-8.61183 L 4.51854,-8.62773 L 4.51053,-8.64478 L 4.5047,-8.66269 L 4.50117,-8.6812  L 4.5,-8.7 L 4.50117,-8.7188 L 4.5047,-8.73729 L 4.51053,-8.75522 L 4.51854,-8.77226 L 4.52864,-8.78816  L 4.54065,-8.80267 L 4.55438,-8.81557 L 4.56963,-8.82664 L 4.58612,-8.83572 L 4.60364,-8.84265 L 4.62189,-8.84734  L 4.64058,-8.8497 L 4.65941,-8.8497 L 4.6781,-8.84734 L 4.69635,-8.84265 L 4.71385,-8.83572 L 4.73036,-8.82664  L 4.74561,-8.81557 L 4.75934,-8.80267 L 4.77135,-8.78816 L 4.78143,-8.77226 L 4.78946,-8.75522 L 4.79527,-8.73729  L 4.79881,-8.7188 L 4.79999,-8.7 L 4.79881,-8.6812 L 4.79527,-8.66269 L 4.78946,-8.64478 L 4.78143,-8.62773  L 4.77135,-8.61183 L 4.75934,-8.59731 L 4.74561,-8.58441 L 4.73036,-8.57335 L 4.71385,-8.56427 L 4.69635,-8.55733  L 4.6781,-8.55264 L 4.65941,-8.55029 z M 0.321884,-8.55264 L 0.303635,-8.55733 L 0.286133,-8.56427 L 0.269623,-8.57335 L 0.254379,-8.58441 L 0.240646,-8.59731  L 0.228638,-8.61183 L 0.218552,-8.62773 L 0.210526,-8.64478 L 0.204712,-8.66269 L 0.201172,-8.6812 L 0.199997,-8.7  L 0.201172,-8.7188 L 0.204712,-8.73729 L 0.218552,-8.77226 L 0.228638,-8.78816 L 0.240646,-8.80267 L 0.254379,-8.81557  L 0.269623,-8.82664 L 0.286133,-8.83571 L 0.303635,-8.84265 L 0.321884,-8.84734 L 0.340576,-8.8497 L 0.396347,-8.84265  L 0.430359,-8.82664 L 0.445602,-8.81557 L 0.471344,-8.78816 L 0.481445,-8.77226 L 0.489456,-8.7552 L 0.49881,-8.7188  L 0.499985,-8.7 L 0.49881,-8.6812 L 0.495285,-8.66269 L 0.489456,-8.64478 L 0.481445,-8.62773 L 0.471344,-8.61183  L 0.459335,-8.59731 L 0.445602,-8.58441 L 0.430359,-8.57335 L 0.413864,-8.56427 L 0.396347,-8.55733 L 0.378098,-8.55264  L 0.340576,-8.55029 z M 10.6406,-8.55029 L 10.6219,-8.55264 L 10.6036,-8.55733 L 10.5861,-8.56427 L 10.5696,-8.57335 L 10.5544,-8.58441  L 10.5406,-8.59731 L 10.5286,-8.61183 L 10.5185,-8.62773 L 10.5105,-8.64478 L 10.5047,-8.66269 L 10.5012,-8.6812  L 10.5,-8.7 L 10.5012,-8.7188 L 10.5047,-8.73729 L 10.5105,-8.75522 L 10.5185,-8.77226 L 10.5286,-8.78816  L 10.5406,-8.80267 L 10.5544,-8.81557 L 10.5696,-8.82664 L 10.5861,-8.83572 L 10.6036,-8.84265 L 10.6219,-8.84734  L 10.6406,-8.8497 L 10.6594,-8.8497 L 10.6781,-8.84734 L 10.6964,-8.84265 L 10.7139,-8.83572 L 10.7304,-8.82664  L 10.7456,-8.81557 L 10.7593,-8.80267 L 10.7713,-8.78816 L 10.7814,-8.77226 L 10.7895,-8.75522 L 10.7953,-8.73729  L 10.7988,-8.7188 L 10.8,-8.7 L 10.7988,-8.6812 L 10.7953,-8.66269 L 10.7895,-8.64478 L 10.7814,-8.62773  L 10.7713,-8.61183 L 10.7593,-8.59731 L 10.7456,-8.58441 L 10.7304,-8.57335 L 10.7139,-8.56427 L 10.6964,-8.55733  L 10.6781,-8.55264 L 10.6594,-8.55029 z M 12.3406,-8.55029 L 12.3219,-8.55264 L 12.3036,-8.55733 L 12.2861,-8.56427 L 12.2696,-8.57335 L 12.2544,-8.58441  L 12.2406,-8.59731 L 12.2286,-8.61183 L 12.2186,-8.62773 L 12.2105,-8.64478 L 12.2047,-8.66269 L 12.2012,-8.6812  L 12.2,-8.7 L 12.2012,-8.7188 L 12.2047,-8.73729 L 12.2105,-8.75522 L 12.2186,-8.77226 L 12.2286,-8.78816  L 12.2406,-8.80267 L 12.2544,-8.81557 L 12.2696,-8.82664 L 12.2861,-8.83572 L 12.3036,-8.84265 L 12.3219,-8.84734  L 12.3406,-8.8497 L 12.3594,-8.8497 L 12.3781,-8.84734 L 12.3963,-8.84265 L 12.4139,-8.83572 L 12.4304,-8.82664  L 12.4456,-8.81557 L 12.4593,-8.80267 L 12.4713,-8.78816 L 12.4814,-8.77226 L 12.4895,-8.75522 L 12.4953,-8.73729  L 12.4988,-8.7188 L 12.5,-8.7 L 12.4988,-8.6812 L 12.4953,-8.66269 L 12.4895,-8.64478 L 12.4814,-8.62773  L 12.4713,-8.61183 L 12.4593,-8.59731 L 12.4456,-8.58441 L 12.4304,-8.57335 L 12.4139,-8.56427 L 12.3963,-8.55733  L 12.3781,-8.55264 L 12.3594,-8.55029 z M 6.34058,-8.55029 L 6.32188,-8.55264 L 6.30363,-8.55733 L 6.28613,-8.56427 L 6.26962,-8.57335 L 6.25438,-8.58441  L 6.24065,-8.59731 L 6.22864,-8.61183 L 6.21855,-8.62773 L 6.21053,-8.64478 L 6.20471,-8.66269 L 6.20117,-8.6812  L 6.2,-8.7 L 6.20117,-8.7188 L 6.20471,-8.73729 L 6.21053,-8.75522 L 6.21855,-8.77226 L 6.22864,-8.78816  L 6.24065,-8.80267 L 6.25438,-8.81557 L 6.26962,-8.82664 L 6.28613,-8.83572 L 6.30363,-8.84265 L 6.32188,-8.84734  L 6.34058,-8.8497 L 6.35941,-8.8497 L 6.3781,-8.84734 L 6.39635,-8.84265 L 6.41386,-8.83572 L 6.43036,-8.82664  L 6.4456,-8.81557 L 6.45934,-8.80267 L 6.47134,-8.78816 L 6.48145,-8.77226 L 6.48946,-8.75522 L 6.49529,-8.73729  L 6.49881,-8.7188 L 6.5,-8.7 L 6.49881,-8.6812 L 6.49529,-8.66269 L 6.48946,-8.64478 L 6.48145,-8.62773  L 6.47134,-8.61183 L 6.45934,-8.59731 L 6.4456,-8.58441 L 6.43036,-8.57335 L 6.41386,-8.56427 L 6.39635,-8.55733  L 6.3781,-8.55264 L 6.35941,-8.55029 z M 16.6406,-8.55029 L 16.6219,-8.55264 L 16.6036,-8.55733 L 16.5861,-8.56427 L 16.5696,-8.57335 L 16.5544,-8.58441  L 16.5406,-8.59731 L 16.5286,-8.61183 L 16.5186,-8.62773 L 16.5105,-8.64478 L 16.5047,-8.66269 L 16.5012,-8.6812  L 16.5,-8.7 L 16.5012,-8.7188 L 16.5047,-8.73729 L 16.5105,-8.75522 L 16.5186,-8.77226 L 16.5286,-8.78816  L 16.5406,-8.80267 L 16.5544,-8.81557 L 16.5696,-8.82664 L 16.5861,-8.83571 L 16.6219,-8.84734 L 16.6406,-8.8497  L 16.6594,-8.8497 L 16.6781,-8.84734 L 16.7139,-8.83571 L 16.7304,-8.82664 L 16.7456,-8.81557 L 16.7713,-8.78816  L 16.7814,-8.77226 L 16.7953,-8.73729 L 16.7988,-8.7188 L 16.8,-8.7 L 16.7953,-8.66269 L 16.7895,-8.64478  L 16.7814,-8.62773 L 16.7713,-8.61183 L 16.7593,-8.59731 L 16.7456,-8.58441 L 16.7304,-8.57335 L 16.7139,-8.56427  L 16.6964,-8.55733 L 16.6781,-8.55264 L 16.6594,-8.55029 z M 25.1406,-8.50029 L 25.1219,-8.50266 L 25.1036,-8.50734 L 25.0861,-8.51427 L 25.0696,-8.52335 L 25.0544,-8.53441  L 25.0406,-8.54732 L 25.0286,-8.56183 L 25.0186,-8.57773 L 25.0105,-8.59477 L 25.0047,-8.61269 L 25.0012,-8.6312  L 25,-8.64999 L 25.0012,-8.66879 L 25.0047,-8.6873 L 25.0105,-8.70522 L 25.0186,-8.72226 L 25.0286,-8.73816  L 25.0544,-8.76556 L 25.0861,-8.78572 L 25.1036,-8.79265 L 25.1219,-8.79733 L 25.1406,-8.7997 L 25.1594,-8.7997  L 25.1781,-8.79733 L 25.2139,-8.78572 L 25.2304,-8.77664 L 25.2456,-8.76556 L 25.2593,-8.75267 L 25.2713,-8.73816  L 25.2814,-8.72226 L 25.2895,-8.70522 L 25.2953,-8.6873 L 25.2988,-8.66879 L 25.3,-8.64999 L 25.2988,-8.6312  L 25.2953,-8.61269 L 25.2895,-8.59477 L 25.2814,-8.57773 L 25.2713,-8.56183 L 25.2593,-8.54732 L 25.2456,-8.53441  L 25.2304,-8.52335 L 25.2139,-8.51427 L 25.1964,-8.50734 L 25.1781,-8.50266 L 25.1594,-8.50029 z M 18.3406,-8.50029 L 18.3219,-8.50266 L 18.3036,-8.50734 L 18.2861,-8.51427 L 18.2696,-8.52335 L 18.2544,-8.53441  L 18.2406,-8.54732 L 18.2286,-8.56183 L 18.2186,-8.57773 L 18.2105,-8.59477 L 18.2047,-8.61269 L 18.2012,-8.6312  L 18.2,-8.64999 L 18.2012,-8.66879 L 18.2047,-8.6873 L 18.2105,-8.70522 L 18.2186,-8.72226 L 18.2286,-8.73816  L 18.2406,-8.75267 L 18.2544,-8.76556 L 18.2696,-8.77664 L 18.2861,-8.78572 L 18.3036,-8.79265 L 18.3219,-8.79733  L 18.3406,-8.7997 L 18.3594,-8.7997 L 18.3781,-8.79733 L 18.3963,-8.79265 L 18.4139,-8.78572 L 18.4304,-8.77664  L 18.4456,-8.76556 L 18.4593,-8.75267 L 18.4713,-8.73816 L 18.4814,-8.72226 L 18.4895,-8.70522 L 18.4953,-8.6873  L 18.4988,-8.66879 L 18.5,-8.64999 L 18.4988,-8.6312 L 18.4953,-8.61269 L 18.4895,-8.59477 L 18.4814,-8.57773  L 18.4713,-8.56183 L 18.4593,-8.54732 L 18.4456,-8.53441 L 18.4304,-8.52335 L 18.4139,-8.51427 L 18.3963,-8.50734  L 18.3781,-8.50266 L 18.3594,-8.50029 z M 2.99057,-5.8503 L 2.97189,-5.85265 L 2.95364,-5.85733 L 2.93613,-5.86427 L 2.91962,-5.87334 L 2.90437,-5.88441  L 2.89066,-5.89731 L 2.87865,-5.91182 L 2.86855,-5.92773 L 2.86052,-5.94478 L 2.85471,-5.96269 L 2.85118,-5.98119  L 2.84999,-6 L 2.85118,-6.0188 L 2.85471,-6.03729 L 2.86052,-6.05521 L 2.86855,-6.07225 L 2.87865,-6.08817  L 2.89066,-6.10268 L 2.90437,-6.11557 L 2.91962,-6.12665 L 2.93613,-6.13571 L 2.95364,-6.14265 L 2.97189,-6.14734  L 2.99057,-6.1497 L 3.00941,-6.1497 L 3.02811,-6.14734 L 3.04634,-6.14265 L 3.06386,-6.13571 L 3.08037,-6.12665  L 3.09561,-6.11557 L 3.10934,-6.10268 L 3.12134,-6.08817 L 3.13144,-6.07225 L 3.13947,-6.05521 L 3.14528,-6.03729  L 3.1488,-6.0188 L 3.14999,-6 L 3.1488,-5.98119 L 3.14528,-5.96269 L 3.13947,-5.94478 L 3.13144,-5.92773  L 3.12134,-5.91182 L 3.10934,-5.89731 L 3.09561,-5.88441 L 3.08037,-5.87334 L 3.06386,-5.86427 L 3.04634,-5.85733  L 3.02811,-5.85265 L 3.00941,-5.8503 z M 12.3406,-5.8503 L 12.3219,-5.85265 L 12.3036,-5.85733 L 12.2861,-5.86427 L 12.2696,-5.87334 L 12.2544,-5.88441  L 12.2406,-5.89731 L 12.2286,-5.91182 L 12.2186,-5.92773 L 12.2105,-5.94478 L 12.2047,-5.96269 L 12.2012,-5.98119  L 12.2,-6 L 12.2012,-6.0188 L 12.2047,-6.03729 L 12.2105,-6.05521 L 12.2186,-6.07225 L 12.2286,-6.08817  L 12.2406,-6.10268 L 12.2544,-6.11557 L 12.2696,-6.12665 L 12.2861,-6.13571 L 12.3036,-6.14265 L 12.3219,-6.14734  L 12.3406,-6.1497 L 12.3594,-6.1497 L 12.3963,-6.14265 L 12.4139,-6.13571 L 12.4304,-6.12665 L 12.4456,-6.11557  L 12.4593,-6.10268 L 12.4713,-6.08817 L 12.4814,-6.07225 L 12.4953,-6.03729 L 12.4988,-6.0188 L 12.4988,-5.98119  L 12.4895,-5.94478 L 12.4814,-5.92773 L 12.4713,-5.91182 L 12.4593,-5.89731 L 12.4456,-5.88441 L 12.4304,-5.87334  L 12.4139,-5.86427 L 12.3963,-5.85733 L 12.3781,-5.85265 L 12.3594,-5.8503 z M 25.1406,-3.3503 L 25.1219,-3.35265 L 25.1036,-3.35733 L 25.0861,-3.36427 L 25.0696,-3.37334 L 25.0544,-3.38441  L 25.0406,-3.39731 L 25.0286,-3.41182 L 25.0186,-3.42773 L 25.0105,-3.44478 L 25.0047,-3.46269 L 25.0012,-3.48119  L 25,-3.5 L 25.0012,-3.5188 L 25.0047,-3.53729 L 25.0105,-3.55521 L 25.0186,-3.57225 L 25.0286,-3.58817  L 25.0406,-3.60268 L 25.0544,-3.61557 L 25.0696,-3.62665 L 25.0861,-3.63571 L 25.1036,-3.64265 L 25.1219,-3.64734  L 25.1406,-3.6497 L 25.1594,-3.6497 L 25.1781,-3.64734 L 25.1964,-3.64265 L 25.2139,-3.63571 L 25.2304,-3.62665  L 25.2456,-3.61557 L 25.2713,-3.58817 L 25.2814,-3.57225 L 25.2895,-3.55521 L 25.2953,-3.53729 L 25.2988,-3.5188  L 25.3,-3.5 L 25.2953,-3.46269 L 25.2895,-3.44478 L 25.2814,-3.42773 L 25.2713,-3.41182 L 25.2593,-3.39731  L 25.2456,-3.38441 L 25.2304,-3.37334 L 25.2139,-3.36427 L 25.1964,-3.35733 L 25.1781,-3.35265 L 25.1594,-3.3503  z M 18.3406,-1.70029 L 18.3219,-1.70265 L 18.3036,-1.70734 L 18.2861,-1.71426 L 18.2696,-1.72334 L 18.2544,-1.73442  L 18.2406,-1.74731 L 18.2286,-1.76183 L 18.2186,-1.77773 L 18.2105,-1.79477 L 18.2047,-1.81268 L 18.2012,-1.83119  L 18.2,-1.84999 L 18.2012,-1.86879 L 18.2047,-1.8873 L 18.2105,-1.90521 L 18.2186,-1.92226 L 18.2286,-1.93816  L 18.2406,-1.95267 L 18.2544,-1.96558 L 18.2696,-1.97664 L 18.2861,-1.98572 L 18.3036,-1.99265 L 18.3219,-1.99733  L 18.3406,-1.99969 L 18.3594,-1.99969 L 18.3781,-1.99733 L 18.3963,-1.99265 L 18.4139,-1.98572 L 18.4304,-1.97664  L 18.4456,-1.96558 L 18.4593,-1.95267 L 18.4713,-1.93816 L 18.4814,-1.92226 L 18.4895,-1.90521 L 18.4953,-1.8873  L 18.4988,-1.86879 L 18.5,-1.84999 L 18.4988,-1.83119 L 18.4953,-1.81268 L 18.4895,-1.79477 L 18.4814,-1.77773  L 18.4713,-1.76183 L 18.4593,-1.74731 L 18.4456,-1.73442 L 18.4304,-1.72334 L 18.4139,-1.71426 L 18.3963,-1.70734  L 18.3781,-1.70265 L 18.3594,-1.70029 z M 25.1406,-1.70029 L 25.1219,-1.70265 L 25.1036,-1.70734 L 25.0861,-1.71426 L 25.0696,-1.72334 L 25.0544,-1.73442  L 25.0406,-1.74731 L 25.0286,-1.76183 L 25.0186,-1.77773 L 25.0105,-1.79477 L 25.0047,-1.81268 L 25.0012,-1.83119  L 25,-1.84999 L 25.0012,-1.86879 L 25.0047,-1.8873 L 25.0105,-1.90521 L 25.0186,-1.92226 L 25.0286,-1.93816  L 25.0406,-1.95267 L 25.0544,-1.96558 L 25.0696,-1.97664 L 25.0861,-1.98572 L 25.1036,-1.99265 L 25.1219,-1.99733  L 25.1406,-1.99969 L 25.1594,-1.99969 L 25.1781,-1.99733 L 25.1964,-1.99265 L 25.2139,-1.98572 L 25.2304,-1.97664  L 25.2456,-1.96558 L 25.2593,-1.95267 L 25.2713,-1.93816 L 25.2814,-1.92226 L 25.2895,-1.90521 L 25.2953,-1.8873  L 25.2988,-1.86879 L 25.3,-1.84999 L 25.2988,-1.83119 L 25.2953,-1.81268 L 25.2895,-1.79477 L 25.2814,-1.77773  L 25.2713,-1.76183 L 25.2593,-1.74731 L 25.2456,-1.73442 L 25.2304,-1.72334 L 25.2139,-1.71426 L 25.1964,-1.70734  L 25.1781,-1.70265 L 25.1594,-1.70029 z M 6.34058,-1.65028 L 6.32188,-1.65265 L 6.30363,-1.65733 L 6.28613,-1.66426 L 6.26962,-1.67334 L 6.25438,-1.68442  L 6.24065,-1.69731 L 6.22864,-1.71182 L 6.21855,-1.72772 L 6.21053,-1.74477 L 6.20471,-1.7627 L 6.20117,-1.78119  L 6.2,-1.79999 L 6.20117,-1.81879 L 6.20471,-1.8373 L 6.21053,-1.85521 L 6.21855,-1.87225 L 6.22864,-1.88815  L 6.24065,-1.90268 L 6.25438,-1.91557 L 6.26962,-1.92664 L 6.28613,-1.93571 L 6.30363,-1.94266 L 6.32188,-1.94734  L 6.34058,-1.94969 L 6.35941,-1.94969 L 6.3781,-1.94734 L 6.39635,-1.94266 L 6.41386,-1.93571 L 6.43036,-1.92664  L 6.4456,-1.91557 L 6.45934,-1.90268 L 6.47134,-1.88815 L 6.48145,-1.87225 L 6.48946,-1.85521 L 6.49529,-1.8373  L 6.49881,-1.81879 L 6.5,-1.79999 L 6.49881,-1.78119 L 6.49529,-1.7627 L 6.48946,-1.74477 L 6.48145,-1.72772  L 6.47134,-1.71182 L 6.45934,-1.69731 L 6.4456,-1.68442 L 6.43036,-1.67334 L 6.41386,-1.66426 L 6.39635,-1.65733  L 6.3781,-1.65265 L 6.35941,-1.65028 z M 16.6406,-1.65028 L 16.6219,-1.65265 L 16.6036,-1.65733 L 16.5861,-1.66426 L 16.5696,-1.67334 L 16.5544,-1.68442  L 16.5406,-1.69731 L 16.5286,-1.71182 L 16.5186,-1.72772 L 16.5105,-1.74477 L 16.5047,-1.7627 L 16.5012,-1.78119  L 16.5,-1.79999 L 16.5012,-1.81879 L 16.5047,-1.8373 L 16.5105,-1.85521 L 16.5186,-1.87225 L 16.5286,-1.88815  L 16.5406,-1.90268 L 16.5544,-1.91557 L 16.5696,-1.92664 L 16.5861,-1.93571 L 16.6036,-1.94266 L 16.6219,-1.94734  L 16.6406,-1.94969 L 16.6594,-1.94969 L 16.6781,-1.94734 L 16.6964,-1.94266 L 16.7139,-1.93571 L 16.7304,-1.92664  L 16.7456,-1.91557 L 16.7593,-1.90268 L 16.7713,-1.88815 L 16.7814,-1.87225 L 16.7895,-1.85521 L 16.7953,-1.8373  L 16.7988,-1.81879 L 16.8,-1.79999 L 16.7988,-1.78119 L 16.7953,-1.7627 L 16.7895,-1.74477 L 16.7814,-1.72772  L 16.7713,-1.71182 L 16.7593,-1.69731 L 16.7456,-1.68442 L 16.7304,-1.67334 L 16.7139,-1.66426 L 16.6964,-1.65733  L 16.6781,-1.65265 L 16.6594,-1.65028 z M 12.3406,-1.65028 L 12.3219,-1.65265 L 12.3036,-1.65733 L 12.2861,-1.66426 L 12.2696,-1.67334 L 12.2544,-1.68442  L 12.2406,-1.69731 L 12.2286,-1.71182 L 12.2186,-1.72772 L 12.2105,-1.74477 L 12.2047,-1.7627 L 12.2012,-1.78119  L 12.2,-1.79999 L 12.2012,-1.81879 L 12.2047,-1.8373 L 12.2105,-1.85521 L 12.2186,-1.87225 L 12.2286,-1.88815  L 12.2406,-1.90268 L 12.2544,-1.91557 L 12.2696,-1.92664 L 12.2861,-1.93571 L 12.3036,-1.94266 L 12.3219,-1.94734  L 12.3406,-1.94969 L 12.3594,-1.94969 L 12.3781,-1.94734 L 12.3963,-1.94266 L 12.4139,-1.93571 L 12.4304,-1.92664  L 12.4456,-1.91557 L 12.4593,-1.90268 L 12.4713,-1.88815 L 12.4814,-1.87225 L 12.4895,-1.85521 L 12.4953,-1.8373  L 12.4988,-1.81879 L 12.5,-1.79999 L 12.4988,-1.78119 L 12.4953,-1.7627 L 12.4895,-1.74477 L 12.4814,-1.72772  L 12.4713,-1.71182 L 12.4593,-1.69731 L 12.4456,-1.68442 L 12.4304,-1.67334 L 12.4139,-1.66426 L 12.3963,-1.65733  L 12.3781,-1.65265 L 12.3594,-1.65028 z M 10.6406,-1.65028 L 10.6219,-1.65265 L 10.6036,-1.65733 L 10.5861,-1.66426 L 10.5696,-1.67334 L 10.5544,-1.68442  L 10.5406,-1.69731 L 10.5286,-1.71182 L 10.5185,-1.72772 L 10.5105,-1.74477 L 10.5047,-1.7627 L 10.5012,-1.78119  L 10.5,-1.79999 L 10.5012,-1.81879 L 10.5047,-1.8373 L 10.5105,-1.85521 L 10.5185,-1.87225 L 10.5286,-1.88815  L 10.5406,-1.90268 L 10.5544,-1.91557 L 10.5696,-1.92664 L 10.5861,-1.93571 L 10.6036,-1.94266 L 10.6219,-1.94734  L 10.6406,-1.94969 L 10.6594,-1.94969 L 10.6781,-1.94734 L 10.6964,-1.94266 L 10.7139,-1.93571 L 10.7304,-1.92664  L 10.7456,-1.91557 L 10.7593,-1.90268 L 10.7713,-1.88815 L 10.7814,-1.87225 L 10.7895,-1.85521 L 10.7953,-1.8373  L 10.7988,-1.81879 L 10.8,-1.79999 L 10.7988,-1.78119 L 10.7953,-1.7627 L 10.7895,-1.74477 L 10.7814,-1.72772  L 10.7713,-1.71182 L 10.7593,-1.69731 L 10.7456,-1.68442 L 10.7304,-1.67334 L 10.7139,-1.66426 L 10.6964,-1.65733  L 10.6781,-1.65265 L 10.6594,-1.65028 z M 4.64058,-1.65028 L 4.62189,-1.65265 L 4.60364,-1.65733 L 4.58612,-1.66426 L 4.56963,-1.67334 L 4.55438,-1.68442  L 4.54065,-1.69731 L 4.52864,-1.71182 L 4.51854,-1.72772 L 4.51053,-1.74477 L 4.5047,-1.7627 L 4.50117,-1.78119  L 4.5,-1.79999 L 4.50117,-1.81879 L 4.5047,-1.8373 L 4.51053,-1.85521 L 4.51854,-1.87225 L 4.52864,-1.88815  L 4.54065,-1.90268 L 4.55438,-1.91557 L 4.56963,-1.92664 L 4.58612,-1.93571 L 4.60364,-1.94266 L 4.62189,-1.94734  L 4.64058,-1.94969 L 4.65941,-1.94969 L 4.6781,-1.94734 L 4.69635,-1.94266 L 4.71385,-1.93571 L 4.73036,-1.92664  L 4.74561,-1.91557 L 4.75934,-1.90268 L 4.77135,-1.88815 L 4.78143,-1.87225 L 4.78946,-1.85521 L 4.79527,-1.8373  L 4.79881,-1.81879 L 4.79999,-1.79999 L 4.79881,-1.78119 L 4.79527,-1.7627 L 4.78946,-1.74477 L 4.78143,-1.72772  L 4.77135,-1.71182 L 4.75934,-1.69731 L 4.74561,-1.68442 L 4.73036,-1.67334 L 4.71385,-1.66426 L 4.69635,-1.65733  L 4.6781,-1.65265 L 4.65941,-1.65028 z M 0.340576,-1.65028 L 0.321884,-1.65265 L 0.303635,-1.65733 L 0.286133,-1.66426 L 0.269623,-1.67334 L 0.254379,-1.68442  L 0.240646,-1.69731 L 0.228638,-1.71182 L 0.218552,-1.72772 L 0.210526,-1.74477 L 0.204712,-1.7627 L 0.201172,-1.78119  L 0.199997,-1.79999 L 0.201172,-1.81879 L 0.204712,-1.8373 L 0.210526,-1.85521 L 0.218552,-1.87225 L 0.228638,-1.88815  L 0.240646,-1.90268 L 0.254379,-1.91557 L 0.269623,-1.92664 L 0.286133,-1.93571 L 0.303635,-1.94266 L 0.321884,-1.94734  L 0.340576,-1.94969 L 0.359406,-1.94969 L 0.378098,-1.94734 L 0.396347,-1.94266 L 0.413864,-1.93571 L 0.430359,-1.92664  L 0.445602,-1.91557 L 0.459335,-1.90268 L 0.471344,-1.88815 L 0.481445,-1.87225 L 0.489456,-1.85521 L 0.495285,-1.8373  L 0.49881,-1.81879 L 0.5,-1.79999 L 0.49881,-1.78119 L 0.495285,-1.7627 L 0.489456,-1.74477 L 0.481445,-1.72772  L 0.471344,-1.71182 L 0.459335,-1.69731 L 0.445602,-1.68442 L 0.430359,-1.67334 L 0.413864,-1.66426 L 0.396347,-1.65733  L 0.378098,-1.65265 L 0.359406,-1.65028 z M 38.5,-3 L 26.5,-3 L 26.5,-0 L 38.5,-0 z M 26.7906,-2.55029 L 26.7719,-2.55264 L 26.7536,-2.55733 L 26.7361,-2.56427 L 26.7196,-2.57335 L 26.7044,-2.58441  L 26.6906,-2.59731 L 26.6786,-2.61183 L 26.6685,-2.62773 L 26.6605,-2.64478 L 26.6547,-2.66269 L 26.6512,-2.6812  L 26.65,-2.7 L 26.6512,-2.7188 L 26.6547,-2.73729 L 26.6605,-2.7552 L 26.6685,-2.77226 L 26.6786,-2.78816  L 26.6906,-2.80267 L 26.7044,-2.81557 L 26.7196,-2.82664 L 26.7361,-2.83571 L 26.7536,-2.84265 L 26.7719,-2.84734  L 26.7906,-2.8497 L 26.8094,-2.8497 L 26.8281,-2.84734 L 26.8463,-2.84265 L 26.8639,-2.83571 L 26.8804,-2.82664  L 26.8956,-2.81557 L 26.9093,-2.80267 L 26.9213,-2.78816 L 26.9314,-2.77226 L 26.9395,-2.7552 L 26.9453,-2.73729  L 26.9488,-2.7188 L 26.95,-2.7 L 26.9488,-2.6812 L 26.9453,-2.66269 L 26.9395,-2.64478 L 26.9314,-2.62773  L 26.9213,-2.61183 L 26.9093,-2.59731 L 26.8956,-2.58441 L 26.8804,-2.57335 L 26.8639,-2.56427 L 26.8463,-2.55733  L 26.8281,-2.55264 L 26.8094,-2.55029 z M 38.1906,-2.55029 L 38.1719,-2.55264 L 38.1536,-2.55733 L 38.1361,-2.56427 L 38.1196,-2.57335 L 38.1044,-2.58441  L 38.0907,-2.59731 L 38.0786,-2.61183 L 38.0685,-2.62773 L 38.0605,-2.64478 L 38.0547,-2.66269 L 38.0512,-2.6812  L 38.05,-2.7 L 38.0512,-2.7188 L 38.0547,-2.73729 L 38.0605,-2.75522 L 38.0685,-2.77226 L 38.0786,-2.78816  L 38.0907,-2.80267 L 38.1044,-2.81557 L 38.1196,-2.82664 L 38.1361,-2.83571 L 38.1536,-2.84265 L 38.1719,-2.84734  L 38.1906,-2.8497 L 38.2094,-2.8497 L 38.2281,-2.84734 L 38.2464,-2.84265 L 38.2639,-2.83571 L 38.2804,-2.82664  L 38.2956,-2.81557 L 38.3093,-2.80267 L 38.3214,-2.78816 L 38.3314,-2.77226 L 38.3395,-2.7552 L 38.3453,-2.73729  L 38.3488,-2.7188 L 38.35,-2.7 L 38.3488,-2.6812 L 38.3453,-2.66269 L 38.3395,-2.64478 L 38.3314,-2.62773  L 38.3214,-2.61183 L 38.3093,-2.59731 L 38.2956,-2.58441 L 38.2804,-2.57335 L 38.2639,-2.56427 L 38.2464,-2.55733  L 38.2281,-2.55264 L 38.2094,-2.55029 z M 38.1906,-0.150284 L 38.1719,-0.152649 L 38.1536,-0.157333 L 38.1361,-0.164276 L 38.1196,-0.17334 L 38.1044,-0.184418  L 38.0907,-0.197311 L 38.0786,-0.211823 L 38.0685,-0.227722 L 38.0605,-0.244766 L 38.0547,-0.262695 L 38.0512,-0.281189  L 38.05,-0.299988 L 38.0512,-0.318787 L 38.0547,-0.337296 L 38.0605,-0.355209 L 38.0685,-0.372253 L 38.0786,-0.388153  L 38.0907,-0.402679 L 38.1044,-0.415573 L 38.1196,-0.426636 L 38.1361,-0.435715 L 38.1536,-0.442657 L 38.1719,-0.447342  L 38.1906,-0.449692 L 38.2094,-0.449692 L 38.2281,-0.447342 L 38.2464,-0.442657 L 38.2639,-0.435715 L 38.2804,-0.426636  L 38.2956,-0.415573 L 38.3093,-0.402679 L 38.3214,-0.388153 L 38.3314,-0.372253 L 38.3395,-0.355209 L 38.3453,-0.337296  L 38.3488,-0.318787 L 38.35,-0.299988 L 38.3488,-0.281189 L 38.3453,-0.262695 L 38.3395,-0.244766 L 38.3314,-0.227722  L 38.3214,-0.211823 L 38.3093,-0.197311 L 38.2956,-0.184418 L 38.2804,-0.17334 L 38.2639,-0.164276 L 38.2464,-0.157333  L 38.2281,-0.152649 L 38.2094,-0.150284 z M 26.7906,-0.150284 L 26.7719,-0.152649 L 26.7536,-0.157333 L 26.7361,-0.164276 L 26.7196,-0.17334 L 26.7044,-0.184418  L 26.6906,-0.197311 L 26.6786,-0.211823 L 26.6685,-0.227722 L 26.6605,-0.244766 L 26.6547,-0.262695 L 26.6512,-0.281189  L 26.65,-0.299988 L 26.6512,-0.318787 L 26.6547,-0.337296 L 26.6605,-0.355209 L 26.6685,-0.372253 L 26.6786,-0.388153  L 26.6906,-0.402679 L 26.7044,-0.415573 L 26.7196,-0.426636 L 26.7361,-0.435715 L 26.7536,-0.442657 L 26.7719,-0.447342  L 26.7906,-0.449692 L 26.8094,-0.449692 L 26.8281,-0.447342 L 26.8463,-0.442657 L 26.8639,-0.435715 L 26.8804,-0.426636  L 26.8956,-0.415573 L 26.9093,-0.402679 L 26.9213,-0.388153 L 26.9314,-0.372253 L 26.9395,-0.355209 L 26.9453,-0.337296  L 26.9488,-0.318787 L 26.95,-0.299988 L 26.9488,-0.281189 L 26.9453,-0.262695 L 26.9395,-0.244766 L 26.9314,-0.227722  L 26.9213,-0.211823 L 26.9093,-0.197311 L 26.8956,-0.184418 L 26.8804,-0.17334 L 26.8639,-0.164276 L 26.8463,-0.157333  L 26.8281,-0.152649 L 26.8094,-0.150284 z "
     stroke="black"
     fill="lightgray"
     stroke-width="0.265"
     id="path4"
     style="fill:none;stroke-width:0.0265;stroke-miterlimit:4;stroke-dasharray:none" />
</svg>
