<?xml version="1.0" encoding="UTF-8" standalone="no"?>
<!-- Created with Inkscape (http://www.inkscape.org/) -->

<svg
   xmlns:dc="http://purl.org/dc/elements/1.1/"
   xmlns:cc="http://creativecommons.org/ns#"
   xmlns:rdf="http://www.w3.org/1999/02/22-rdf-syntax-ns#"
   xmlns:svg="http://www.w3.org/2000/svg"
   xmlns="http://www.w3.org/2000/svg"
   xmlns:sodipodi="http://sodipodi.sourceforge.net/DTD/sodipodi-0.dtd"
   xmlns:inkscape="http://www.inkscape.org/namespaces/inkscape"
   sodipodi:docname="top_panel_cnc.svg"
   inkscape:version="0.92.0 r"
   version="1.1"
   id="svg3358"
   viewBox="0 0 637.79528 974.40944"
   height="275mm"
   width="180mm">
  <sodipodi:namedview
     inkscape:window-maximized="1"
     inkscape:window-y="27"
     inkscape:window-x="0"
     inkscape:window-height="1016"
     inkscape:window-width="1920"
     showguides="true"
     showgrid="true"
     inkscape:current-layer="layer2"
     inkscape:document-units="px"
     inkscape:cy="536.18337"
     inkscape:cx="425.04916"
     inkscape:zoom="0.76745936"
     inkscape:pageshadow="2"
     inkscape:pageopacity="0.0"
     borderopacity="1.0"
     bordercolor="#666666"
     pagecolor="#ffffff"
     id="base"
     inkscape:showpageshadow="false">
    <inkscape:grid
       type="xygrid"
       id="grid3372" />
  </sodipodi:namedview>
  <defs
     id="defs3360">
    <marker
       inkscape:stockid="Arrow1Lstart"
       orient="auto"
       refY="0"
       refX="0"
       id="Arrow1Lstart-6"
       style="overflow:visible"
       inkscape:isstock="true">
      <path
         inkscape:connector-curvature="0"
         id="path8449-7"
         d="M 0,0 5,-5 -12.5,0 5,5 Z"
         style="fill:#000000;fill-opacity:1;fill-rule:evenodd;stroke:#000000;stroke-width:1.00000003pt;stroke-opacity:1"
         transform="matrix(0.8,0,0,0.8,10,0)" />
    </marker>
    <marker
       inkscape:stockid="Arrow1Lstart"
       orient="auto"
       refY="0"
       refX="0"
       id="Arrow1Lstart-6-3"
       style="overflow:visible"
       inkscape:isstock="true">
      <path
         inkscape:connector-curvature="0"
         id="path8449-7-6"
         d="M 0,0 5,-5 -12.5,0 5,5 Z"
         style="fill:#000000;fill-opacity:1;fill-rule:evenodd;stroke:#000000;stroke-width:1.00000003pt;stroke-opacity:1"
         transform="matrix(0.8,0,0,0.8,10,0)" />
    </marker>
  </defs>
  <metadata
     id="metadata3363">
    <rdf:RDF>
      <cc:Work
         rdf:about="">
        <dc:format>image/svg+xml</dc:format>
        <dc:type
           rdf:resource="http://purl.org/dc/dcmitype/StillImage" />
        <dc:title></dc:title>
      </cc:Work>
    </rdf:RDF>
  </metadata>
  <g
     inkscape:label="Layer 1"
     inkscape:groupmode="layer"
     id="layer1"
     transform="translate(0,-77.952756)">
    <path
       d="m 271.37835,406.32529 2.50866,-19.86378 4.97835,-19.39606 7.37362,-18.61654 9.64488,-17.54646 11.77087,-16.2 13.70551,-14.59842 15.4311,-12.76299 16.90512,-10.72914 18.11693,-8.52519 19.04528,-6.18662 19.6689,-3.75236 19.98425,-1.25787 19.98425,1.25787 19.6689,3.75236 19.04527,6.18662 18.11693,8.52519 16.90512,10.72914 15.4311,12.76299 13.70552,14.59842 11.77087,16.2 9.64488,17.54646 7.37008,18.61654 4.98189,19.39606 2.50866,19.86378 0,20.02677 -2.50866,19.86378 -4.98189,19.39606 -7.37008,18.61654 -9.64488,17.54646 -11.77087,16.2 -13.70552,14.59842 -15.4311,12.76299 -16.90512,10.72914 -18.11693,8.52519 -19.04527,6.18662 -19.6689,3.75236 -19.98425,1.25787 -19.98425,-1.25787 -19.6689,-3.75236 -19.04528,-6.18662 -18.11693,-8.52519 -16.90512,-10.72914 -15.4311,-12.76299 -13.70551,-14.59842 -11.77087,-16.2 -9.64488,-17.54646 -7.37362,-18.61654 -4.97835,-19.39606 -2.50866,-19.86378 z m 297.33662,-135.70866 0.10984,-0.88229 0.22323,-0.86102 0.32599,-0.82913 0.42874,-0.77953 0.52441,-0.71929 0.60945,-0.64843 0.68385,-0.56693 0.75119,-0.47834 0.80787,-0.37914 0.84685,-0.27283 0.87165,-0.16654 0.88937,-0.0567 0.88937,0.0567 0.87166,0.16654 0.84685,0.27283 0.80433,0.37914 0.75472,0.47834 0.68386,0.56693 0.60945,0.64843 0.52441,0.71929 0.42874,0.77953 0.32598,0.82913 0.22323,0.86102 0.10984,0.88229 0,0.89291 -0.10984,0.88228 -0.22323,0.86103 -0.32598,0.82559 -0.42874,0.78307 -0.52441,0.71929 -0.60945,0.64843 -0.68386,0.56692 -0.75472,0.47835 -0.80433,0.37559 -0.84685,0.27638 -0.87166,0.16654 -0.88937,0.0567 -0.88937,-0.0567 -0.87165,-0.16654 -0.84685,-0.27638 -0.80787,-0.37559 -0.75119,-0.47835 -0.68385,-0.56692 -0.60945,-0.64843 -0.52441,-0.71929 -0.42874,-0.78307 -0.32599,-0.82559 -0.22323,-0.86103 -0.10984,-0.88228 z m 0,290.55118 0.10984,-0.88228 0.22323,-0.86103 0.32599,-0.82913 0.42874,-0.77953 0.52441,-0.71929 0.60945,-0.64843 0.68385,-0.56692 0.75119,-0.47835 0.80787,-0.37913 0.84685,-0.27284 0.87165,-0.16654 0.88937,-0.0567 0.88937,0.0567 0.87166,0.16654 0.84685,0.27284 0.80433,0.37913 0.75472,0.47835 0.68386,0.56692 0.60945,0.64843 0.52441,0.71929 0.42874,0.77953 0.32598,0.82913 0.22323,0.86103 0.10984,0.88228 0,0.89291 -0.10984,0.88229 -0.22323,0.86102 -0.32598,0.82913 -0.42874,0.77953 -0.52441,0.71929 -0.60945,0.64843 -0.68386,0.56693 -0.75472,0.47834 -0.80433,0.37914 -0.84685,0.27283 -0.87166,0.16654 -0.88937,0.0567 -0.88937,-0.0567 -0.87165,-0.16654 -0.84685,-0.27283 -0.80787,-0.37914 -0.75119,-0.47834 -0.68385,-0.56693 -0.60945,-0.64843 -0.52441,-0.71929 -0.42874,-0.77953 -0.32599,-0.82913 -0.22323,-0.86102 -0.10984,-0.88229 z m -290.55118,0 0.10984,-0.88228 0.22323,-0.86103 0.32598,-0.82913 0.42874,-0.77953 0.52441,-0.71929 0.60945,-0.64843 0.68386,-0.56692 0.75118,-0.47835 0.80787,-0.37913 0.84685,-0.27284 0.87166,-0.16654 0.88937,-0.0567 0.88937,0.0567 0.87165,0.16654 0.84685,0.27284 0.80433,0.37913 0.75473,0.47835 0.68385,0.56692 0.60945,0.64843 0.52441,0.71929 0.42874,0.77953 0.32599,0.82913 0.22322,0.86103 0.10985,0.88228 0,0.89291 -0.10985,0.88229 -0.22322,0.86102 -0.32599,0.82913 -0.42874,0.77953 -0.52441,0.71929 -0.60945,0.64843 -0.68385,0.56693 -0.75473,0.47834 -0.80433,0.37914 -0.84685,0.27283 -0.87165,0.16654 -0.88937,0.0567 -0.88937,-0.0567 -0.87166,-0.16654 -0.84685,-0.27283 -0.80787,-0.37914 -0.75118,-0.47834 -0.68386,-0.56693 -0.60945,-0.64843 -0.52441,-0.71929 -0.42874,-0.77953 -0.32598,-0.82913 -0.22323,-0.86102 -0.10984,-0.88229 z m 0,-290.55118 0.10984,-0.88229 0.22323,-0.86102 0.32598,-0.82913 0.42874,-0.77953 0.52441,-0.71929 0.60945,-0.64843 0.68386,-0.56693 0.75118,-0.47834 0.80787,-0.37914 0.84685,-0.27283 0.87166,-0.16654 0.88937,-0.0567 0.88937,0.0567 0.87165,0.16654 0.84685,0.27283 0.80433,0.37914 0.75473,0.47834 0.68385,0.56693 0.60945,0.64843 0.52441,0.71929 0.42874,0.77953 0.32599,0.82913 0.22322,0.86102 0.10985,0.88229 0,0.89291 -0.10985,0.88228 -0.22322,0.86103 -0.32599,0.82559 -0.42874,0.78307 -0.52441,0.71929 -0.60945,0.64843 -0.68385,0.56692 -0.75473,0.47835 -0.80433,0.37559 -0.84685,0.27638 -0.87165,0.16654 -0.88937,0.0567 -0.88937,-0.0567 -0.87166,-0.16654 -0.84685,-0.27638 -0.80787,-0.37559 -0.75118,-0.47835 -0.68386,-0.56692 -0.60945,-0.64843 -0.52441,-0.71929 -0.42874,-0.78307 -0.32598,-0.82559 -0.22323,-0.86103 -0.10984,-0.88228 z m -155.84174,688.94289 0.61299,-4.85431 1.21536,-4.74094 1.80354,-4.55315 2.3563,-4.2874 2.87717,-3.96142 3.35197,-3.56811 3.77007,-3.11811 4.13504,-2.62205 4.42914,-2.08701 4.65236,-1.50945 4.80827,-0.91771 4.88622,-0.30827 4.88622,0.30827 4.80827,0.91771 4.65236,1.50945 4.42913,2.08701 4.13504,2.62205 3.77008,3.11811 3.35197,3.56811 2.87716,3.96142 2.3563,4.2874 1.80355,4.55315 1.21535,4.74094 0.61299,4.85431 0,4.8969 -0.61299,4.8543 -1.21535,4.741 -1.80355,4.5531 -2.3563,4.2874 -2.87716,3.9614 -3.35197,3.5681 -3.77008,3.11811 -4.13504,2.6221 -4.42913,2.087 -4.65236,1.5094 -4.80827,0.91767 -4.88622,0.3082 -4.88622,-0.3082 -4.80827,-0.91767 -4.65236,-1.5094 -4.42914,-2.087 -4.13504,-2.6221 -3.77007,-3.11811 -3.35197,-3.5681 -2.87717,-3.9614 -2.3563,-4.2874 -1.80354,-4.5531 -1.21536,-4.741 -0.61299,-4.8543 z m 30.05788,-51.25746 0.13819,-1.10197 0.27637,-1.0807 0.41103,-1.03111 0.53504,-0.97795 0.65551,-0.9 0.76181,-0.81142 0.85394,-0.70866 0.94252,-0.59527 1.0063,-0.47481 1.0559,-0.3437 1.09488,-0.20551 1.10906,-0.0709 1.10905,0.0709 1.09488,0.20551 1.05591,0.3437 1.0063,0.47481 0.93898,0.59527 0.85748,0.70866 0.76181,0.81142 0.65551,0.9 0.53504,0.97795 0.41102,1.03111 0.27638,1.0807 0.13819,1.10197 0,1.1126 -0.13819,1.10197 -0.27638,1.08071 -0.41102,1.0311 -0.53504,0.97795 -0.65551,0.89646 -0.76181,0.81142 -0.85748,0.7122 -0.93898,0.59528 -1.0063,0.47126 -1.05591,0.3437 -1.09488,0.20905 -1.10905,0.0709 -1.10906,-0.0709 -1.09488,-0.20905 -1.0559,-0.3437 -1.0063,-0.47126 -0.94252,-0.59528 -0.85394,-0.7122 -0.76181,-0.81142 -0.65551,-0.89646 -0.53504,-0.97795 -0.41103,-1.0311 -0.27637,-1.08071 -0.13819,-1.10197 z m 0,106.29914 0.13819,-1.102 0.27637,-1.0807 0.41103,-1.0311 0.53504,-0.978 0.65551,-0.9 0.76181,-0.8114 0.85394,-0.7087 0.94252,-0.5952 1.0063,-0.4748 1.0559,-0.3437 1.09488,-0.2055 1.10906,-0.071 1.10905,0.071 1.09488,0.2055 1.05591,0.3437 1.0063,0.4748 0.93898,0.5952 0.85748,0.7087 0.76181,0.8114 0.65551,0.9 0.53504,0.978 0.41102,1.0311 0.27638,1.0807 0.13819,1.102 0,1.1126 -0.13819,1.1019 -0.27638,1.0807 -0.41102,1.0311 -0.53504,0.978 -0.65551,0.8964 -0.76181,0.8115 -0.85748,0.7122 -0.93898,0.5952 -1.0063,0.4713 -1.05591,0.3437 -1.09488,0.2091 -1.10905,0.071 -1.10906,-0.071 -1.09488,-0.2091 -1.0559,-0.3437 -1.0063,-0.4713 -0.94252,-0.5952 -0.85394,-0.7122 -0.76181,-0.8115 -0.65551,-0.8964 -0.53504,-0.978 -0.41103,-1.0311 -0.27637,-1.0807 -0.13819,-1.1019 z"
       id="path6"
       inkscape:connector-curvature="0"
       style="fill:none;stroke:#000000;stroke-width:0.93897637;stroke-miterlimit:4;stroke-dasharray:none"
       sodipodi:nodetypes="cccccccccccccccccccccccccccccccccccccccccccccccccccccccccccccccccccccccccccccccccccccccccccccccccccccccccccccccccccccccccccccccccccccccccccccccccccccccccccccccccccccccccccccccccccccccccccccccccccccccccccccccccccccccccccccccccccccccccccccccccccccccccccccccccccccccccccccccccccccccccccccccccccccccccccccccccccccccccccccccccccccccccccccccccccccccccccccccccccccccccccccccccccccccccccccccccccccccccccccccccccccccc" />
    <g
       id="g4451" />
    <path
       inkscape:connector-curvature="0"
       id="path1344"
       d="M 0.46814731,78.420818 H 637.32713 V 1051.894 H 0.46814731 Z"
       style="fill:none;fill-rule:evenodd;stroke:#000000;stroke-width:0.93897637;stroke-linecap:butt;stroke-linejoin:miter;stroke-opacity:1;stroke-miterlimit:4;stroke-dasharray:none" />
    <g
       id="g3191" />
  </g>
  <g
     inkscape:groupmode="layer"
     id="layer2"
     inkscape:label="Layer 2">
    <g
       transform="translate(-0.46819347,-974.53184)"
       id="g36">
      <path
         style="display:inline;fill:none;fill-rule:evenodd;stroke:#000000;stroke-width:0.93897635;stroke-linecap:butt;stroke-linejoin:miter;stroke-miterlimit:4;stroke-dasharray:none;stroke-opacity:1;marker-start:url(#Arrow1Lstart-6-3)"
         d="m 637.96819,973.94129 18.75,-18.75 h 37.5"
         id="path36"
         inkscape:connector-curvature="0"
         sodipodi:nodetypes="ccc" />
      <text
         xml:space="preserve"
         style="font-style:normal;font-weight:normal;font-size:37.49999619px;line-height:23.43749809px;font-family:sans-serif;letter-spacing:0px;word-spacing:0px;display:inline;fill:#000000;fill-opacity:1;stroke:none;stroke-width:0.93749994px;stroke-linecap:butt;stroke-linejoin:miter;stroke-opacity:1"
         x="695.60077"
         y="954.99268"
         id="text40"><tspan
           sodipodi:role="line"
           id="tspan38"
           x="695.60077"
           y="954.99268"
           style="font-size:14.99999905px;stroke-width:0.93749994px">Spindle origin</tspan></text>
    </g>
  </g>
  <defs
     id="defs5255" />
  <defs
     id="defs5260" />
  <defs
     id="defs5265" />
  <defs
     id="defs5270" />
</svg>
