<?xml version='1.0' encoding='UTF-8' standalone='no'?>
<!-- Created with Fritzing (http://www.fritzing.org/) -->
<svg xmlns="http://www.w3.org/2000/svg" baseProfile="tiny" y="0in" x="0in"  xmlns:svg="http://www.w3.org/2000/svg" version="1.2" viewBox="0 0 722.835 255.118" height="3.54331in" width="10.0394in">
 <g partID="859413040">
  <g id="board" >
   <rect stroke="black" id="boardoutline" y="0.288" stroke-width="0.5" x="0.288"  fill-opacity="0.5" fill="none" height="254.542" width="722.259"/>
  </g>
 </g>
 <g partID="859396871">
  <g transform="translate(20.8844,208.085)">
   <g id="copper1" >
    <circle stroke="black" id="connector0pin" r="1.99559" stroke-width="2.16" cy="4.31559"  cx="4.31559" fill="black"/>
   </g>
  </g>
 </g>
 <g partID="859377651">
  <g transform="translate(511.92,103.68)">
   <g transform="matrix(0,-1,1,0,0,0)">
    <g id="copper1" >
     <circle stroke="black" id="connector0pin" r="1.8" stroke-width="2.16" cy="2.88"  cx="2.88" fill="black"/>
     <circle stroke="black" id="connector1pin" r="1.8" stroke-width="2.16" cy="2.88"  cx="10.0933" fill="black"/>
    </g>
   </g>
  </g>
 </g>
 <g partID="859344321">
  <g transform="translate(413.285,168.485)">
   <g id="copper1" >
    <circle stroke="black" id="connector0pin" r="1.99559" stroke-width="2.16" cy="4.31559"  cx="4.31559" fill="black"/>
   </g>
  </g>
 </g>
 <g partID="859357371">
  <g transform="translate(244.085,168.485)">
   <g id="copper1" >
    <circle stroke="black" id="connector0pin" r="1.99559" stroke-width="2.16" cy="4.31559"  cx="4.31559" fill="black"/>
   </g>
  </g>
 </g>
 <g partID="859357591">
  <g transform="translate(74.8844,168.485)">
   <g id="copper1" >
    <circle stroke="black" id="connector0pin" r="1.99559" stroke-width="2.16" cy="4.31559"  cx="4.31559" fill="black"/>
   </g>
  </g>
 </g>
 <g partID="859291341">
  <g transform="translate(576.36,89.64)">
   <g transform="matrix(0,1,-1,0,0,0)">
    <g id="copper1" >
     <g id="copper0" >
      <rect stroke="black" id="rect11" y="5.58" stroke-width="2.16" x="1.98"  fill="black" height="3.96" width="3.96"/>
      <circle stroke="black" id="connector0pin" r="1.98" stroke-width="2.16" cy="7.56"  cx="3.96" fill="black"/>
      <circle stroke="black" id="connector1pin" r="1.98" stroke-width="2.16" cy="7.56"  cx="11.16" fill="black"/>
     </g>
    </g>
   </g>
  </g>
 </g>
 <g partID="859261141">
  <g transform="translate(611.218,51.6178)">
   <g id="copper1" >
    <circle stroke="black" id="connector0pin" r="1.99559" stroke-width="2.16" cy="4.31559"  cx="4.31559" fill="black"/>
   </g>
  </g>
 </g>
 <g partID="859262201">
  <g transform="translate(550.285,53.2844)">
   <g id="copper1" >
    <circle stroke="black" id="connector0pin" r="1.99559" stroke-width="2.16" cy="4.31559"  cx="4.31559" fill="black"/>
   </g>
  </g>
 </g>
 <g partID="859262241">
  <g transform="translate(557.218,60.751)">
   <g id="copper1" >
    <circle stroke="black" id="connector0pin" r="1.99559" stroke-width="2.16" cy="4.31559"  cx="4.31559" fill="black"/>
   </g>
  </g>
 </g>
 <g partID="859262281">
  <g transform="translate(564.685,67.6844)">
   <g id="copper1" >
    <circle stroke="black" id="connector0pin" r="1.99559" stroke-width="2.16" cy="4.31559"  cx="4.31559" fill="black"/>
   </g>
  </g>
 </g>
 <g partID="859262321">
  <g transform="translate(542.818,38.8844)">
   <g id="copper1" >
    <circle stroke="black" id="connector0pin" r="1.99559" stroke-width="2.16" cy="4.31559"  cx="4.31559" fill="black"/>
   </g>
  </g>
 </g>
 <g partID="859262381">
  <g transform="translate(229.685,154.085)">
   <g id="copper1" >
    <circle stroke="black" id="connector0pin" r="1.99559" stroke-width="2.16" cy="4.31559"  cx="4.31559" fill="black"/>
   </g>
  </g>
 </g>
 <g partID="859262421">
  <g transform="translate(60.4844,146.885)">
   <g id="copper1" >
    <circle stroke="black" id="connector0pin" r="1.99559" stroke-width="2.16" cy="4.31559"  cx="4.31559" fill="black"/>
   </g>
  </g>
 </g>
 <g partID="859262531">
  <g transform="translate(398.885,161.285)">
   <g id="copper1" >
    <circle stroke="black" id="connector0pin" r="1.99559" stroke-width="2.16" cy="4.31559"  cx="4.31559" fill="black"/>
   </g>
  </g>
 </g>
 <g partID="859263031">
  <g transform="translate(46.0844,211.685)">
   <g id="copper1" >
    <circle stroke="black" id="connector0pin" r="1.99559" stroke-width="2.16" cy="4.31559"  cx="4.31559" fill="black"/>
   </g>
  </g>
 </g>
 <g partID="859263121">
  <g transform="translate(215.285,182.885)">
   <g id="copper1" >
    <circle stroke="black" id="connector0pin" r="1.99559" stroke-width="2.16" cy="4.31559"  cx="4.31559" fill="black"/>
   </g>
  </g>
 </g>
 <g partID="859263211">
  <g transform="translate(384.485,175.685)">
   <g id="copper1" >
    <circle stroke="black" id="connector0pin" r="1.99559" stroke-width="2.16" cy="4.31559"  cx="4.31559" fill="black"/>
   </g>
  </g>
 </g>
 <g partID="859264781">
  <g transform="translate(589.685,96.4848)">
   <g id="copper1" >
    <circle stroke="black" id="connector0pin" r="1.99559" stroke-width="2.16" cy="4.31559"  cx="4.31559" fill="black"/>
   </g>
  </g>
 </g>
 <g partID="859271111">
  <g transform="translate(210.713,97.2)">
   <g transform="matrix(0,-1,1,0,0,0)">
    <g id="copper1" >
     <g id="copper0" >
      <rect stroke="black" id="square" y="6.60756" stroke-width="2.16" x="12.1209"  fill="black" height="4.55811" width="4.55811"/>
      <circle stroke="black" id="connector0pin" r="2.27905" stroke-width="2.16" cy="8.8866"  cx="14.4" fill="black"/>
      <circle stroke="black" id="connector1pin" r="2.27905" stroke-width="2.16" cy="23.0599"  cx="14.4" fill="black"/>
     </g>
    </g>
   </g>
  </g>
 </g>
 <g partID="859270421">
  <g transform="translate(153.113,97.2)">
   <g transform="matrix(0,-1,1,0,0,0)">
    <g id="copper1" >
     <g id="copper0" >
      <rect stroke="black" id="square" y="6.60756" stroke-width="2.16" x="12.1209"  fill="black" height="4.55811" width="4.55811"/>
      <circle stroke="black" id="connector0pin" r="2.27905" stroke-width="2.16" cy="8.8866"  cx="14.4" fill="black"/>
      <circle stroke="black" id="connector1pin" r="2.27905" stroke-width="2.16" cy="23.0599"  cx="14.4" fill="black"/>
     </g>
    </g>
   </g>
  </g>
 </g>
 <g partID="859268841">
  <g transform="translate(401.287,10.8)">
   <g transform="matrix(0,1,-1,0,0,0)">
    <g id="copper1" >
     <g id="copper0" >
      <rect stroke="black" id="square" y="6.60756" stroke-width="2.16" x="12.1209"  fill="black" height="4.55811" width="4.55811"/>
      <circle stroke="black" id="connector0pin" r="2.27905" stroke-width="2.16" cy="8.8866"  cx="14.4" fill="black"/>
      <circle stroke="black" id="connector1pin" r="2.27905" stroke-width="2.16" cy="23.0599"  cx="14.4" fill="black"/>
     </g>
    </g>
   </g>
  </g>
 </g>
 <g partID="859268641">
  <g transform="translate(228.487,10.8)">
   <g transform="matrix(0,1,-1,0,0,0)">
    <g id="copper1" >
     <g id="copper0" >
      <rect stroke="black" id="square" y="6.60756" stroke-width="2.16" x="12.1209"  fill="black" height="4.55811" width="4.55811"/>
      <circle stroke="black" id="connector0pin" r="2.27905" stroke-width="2.16" cy="8.8866"  cx="14.4" fill="black"/>
      <circle stroke="black" id="connector1pin" r="2.27905" stroke-width="2.16" cy="23.0599"  cx="14.4" fill="black"/>
     </g>
    </g>
   </g>
  </g>
 </g>
 <g partID="859268441">
  <g transform="translate(59.0199,10.6667)">
   <g transform="matrix(0,1,-1,0,0,0)">
    <g id="copper1" >
     <g id="copper0" >
      <rect stroke="black" id="square" y="6.60756" stroke-width="2.16" x="12.1209"  fill="black" height="4.55811" width="4.55811"/>
      <circle stroke="black" id="connector0pin" r="2.27905" stroke-width="2.16" cy="8.8866"  cx="14.4" fill="black"/>
      <circle stroke="black" id="connector1pin" r="2.27905" stroke-width="2.16" cy="23.0599"  cx="14.4" fill="black"/>
     </g>
    </g>
   </g>
  </g>
 </g>
 <g partID="859268971">
  <g transform="translate(20.16,218.16)">
   <g id="copper1" >
    <g id="copper0" >
     <circle stroke="black" id="connector0pin" r="2.088" stroke-width="2.16" cy="5.04"  cx="5.04" fill="black"/>
     <circle stroke="black" id="connector1pin" r="2.088" stroke-width="2.16" cy="12.24"  cx="5.04" fill="black"/>
    </g>
   </g>
  </g>
 </g>
 <g partID="859278861">
  <g transform="translate(31.6844,226.085)">
   <g id="copper1" >
    <circle stroke="black" id="connector0pin" r="1.99559" stroke-width="2.16" cy="4.31559"  cx="4.31559" fill="black"/>
   </g>
  </g>
 </g>
 <g partID="858847531">
  <g transform="translate(3.92036,2.60334)">
   <g id="copper1" >
    <circle stroke="black" id="nonconn0" r="4.25197" stroke-width="0.72" cy="5.85197"  cx="5.85197" fill="black"/>
   </g>
  </g>
 </g>
 <g partID="858847511">
  <g transform="translate(4.14802,198.281)">
   <g id="copper1" >
    <circle stroke="black" id="nonconn0" r="4.25197" stroke-width="0.72" cy="5.85197"  cx="5.85197" fill="black"/>
   </g>
  </g>
 </g>
 <g partID="858847491">
  <g transform="translate(125.797,2.77566)">
   <g id="copper1" >
    <circle stroke="black" id="nonconn0" r="4.25197" stroke-width="0.72" cy="5.85197"  cx="5.85197" fill="black"/>
   </g>
  </g>
 </g>
 <g partID="858847471">
  <g transform="translate(174.281,2.81467)">
   <g id="copper1" >
    <circle stroke="black" id="nonconn0" r="4.25197" stroke-width="0.72" cy="5.85197"  cx="5.85197" fill="black"/>
   </g>
  </g>
 </g>
 <g partID="858847451">
  <g transform="translate(296.235,3.08133)">
   <g id="copper1" >
    <circle stroke="black" id="nonconn0" r="4.25197" stroke-width="0.72" cy="5.85197"  cx="5.85197" fill="black"/>
   </g>
  </g>
 </g>
 <g partID="858847431">
  <g transform="translate(344.281,2.81467)">
   <g id="copper1" >
    <circle stroke="black" id="nonconn0" r="4.25197" stroke-width="0.72" cy="5.85197"  cx="5.85197" fill="black"/>
   </g>
  </g>
 </g>
 <g partID="858847411">
  <g transform="translate(466.197,2.77566)">
   <g id="copper1" >
    <circle stroke="black" id="nonconn0" r="4.25197" stroke-width="0.72" cy="5.85197"  cx="5.85197" fill="black"/>
   </g>
  </g>
 </g>
 <g partID="858847391">
  <g transform="translate(514.272,4.148)">
   <g id="copper1" >
    <circle stroke="black" id="nonconn0" r="4.25197" stroke-width="0.72" cy="5.85197"  cx="5.85197" fill="black"/>
   </g>
  </g>
 </g>
 <g partID="858847371">
  <g transform="translate(344.304,78.9353)">
   <g id="copper1" >
    <circle stroke="black" id="nonconn0" r="4.25197" stroke-width="0.72" cy="5.85197"  cx="5.85197" fill="black"/>
   </g>
  </g>
 </g>
 <g partID="858847351">
  <g transform="translate(79.348,79.348)">
   <g id="copper1" >
    <circle stroke="black" id="nonconn0" r="4.25197" stroke-width="0.72" cy="5.85197"  cx="5.85197" fill="black"/>
   </g>
  </g>
 </g>
 <g partID="858847331">
  <g transform="translate(125.969,198.22)">
   <g id="copper1" >
    <circle stroke="black" id="nonconn0" r="4.25197" stroke-width="0.72" cy="5.85197"  cx="5.85197" fill="black"/>
   </g>
  </g>
 </g>
 <g partID="858847311">
  <g transform="translate(174.337,198.18)">
   <g id="copper1" >
    <circle stroke="black" id="nonconn0" r="4.25197" stroke-width="0.72" cy="5.85197"  cx="5.85197" fill="black"/>
   </g>
  </g>
 </g>
 <g partID="858847291">
  <g transform="translate(296.13,198.447)">
   <g id="copper1" >
    <circle stroke="black" id="nonconn0" r="4.25197" stroke-width="0.72" cy="5.85197"  cx="5.85197" fill="black"/>
   </g>
  </g>
 </g>
 <g partID="858847271">
  <g transform="translate(344.303,198.408)">
   <g id="copper1" >
    <circle stroke="black" id="nonconn0" r="4.25197" stroke-width="0.72" cy="5.85197"  cx="5.85197" fill="black"/>
   </g>
  </g>
 </g>
 <g partID="858847251">
  <g transform="translate(466.002,198.347)">
   <g id="copper1" >
    <circle stroke="black" id="nonconn0" r="4.25197" stroke-width="0.72" cy="5.85197"  cx="5.85197" fill="black"/>
   </g>
  </g>
 </g>
 <g partID="858847231">
  <g transform="translate(514.071,196.947)">
   <g id="copper1" >
    <circle stroke="black" id="nonconn0" r="4.25197" stroke-width="0.72" cy="5.85197"  cx="5.85197" fill="black"/>
   </g>
  </g>
 </g>
 <g partID="858847211">
  <g transform="translate(706.898,197.075)">
   <g id="copper1" >
    <circle stroke="black" id="nonconn0" r="4.25197" stroke-width="0.72" cy="5.85197"  cx="5.85197" fill="black"/>
   </g>
  </g>
 </g>
 <g partID="858847191">
  <g transform="translate(707.065,149.888)">
   <g id="copper1" >
    <circle stroke="black" id="nonconn0" r="4.25197" stroke-width="0.72" cy="5.85197"  cx="5.85197" fill="black"/>
   </g>
  </g>
 </g>
 <g partID="858847161">
  <g transform="translate(707.025,4.12802)">
   <g id="copper1" >
    <circle stroke="black" id="nonconn0" r="4.25197" stroke-width="0.72" cy="5.85197"  cx="5.85197" fill="black"/>
   </g>
  </g>
 </g>
 <g partID="858869271">
  <g transform="translate(593.887,63.3543)">
   <g transform="matrix(0,1,-1,0,0,0)">
    <g id="copper1" >
     <circle stroke="black" id="connector1pin" r="1.84465" stroke-width="2.13732" cy="7.08448"  cx="22.5479" fill="black"/>
     <circle stroke="black" id="connector0pin" r="1.84252" stroke-width="2.13732" cy="7.08661"  cx="8.64567" fill="black"/>
    </g>
   </g>
  </g>
 </g>
 <g partID="858869281">
  <g transform="translate(598.32,82.08)">
   <g transform="matrix(0,-1,1,0,0,0)">
    <g id="copper1" >
     <circle stroke="black" id="connector0pin" r="1.8" stroke-width="2.16" cy="2.88"  cx="2.88" fill="black"/>
     <circle stroke="black" id="connector1pin" r="1.8" stroke-width="2.16" cy="2.88"  cx="10.0933" fill="black"/>
    </g>
   </g>
  </g>
 </g>
 <g partID="858869291">
  <g transform="translate(598.32,96.48)">
   <g transform="matrix(0,-1,1,0,0,0)">
    <g id="copper1" >
     <circle stroke="black" id="connector0pin" r="1.8" stroke-width="2.16" cy="2.88"  cx="2.88" fill="black"/>
     <circle stroke="black" id="connector1pin" r="1.8" stroke-width="2.16" cy="2.88"  cx="10.0933" fill="black"/>
    </g>
   </g>
  </g>
 </g>
 <g partID="858869301">
  <g transform="translate(565.704,146.7)">
   <g transform="matrix(0,-1,1,0,0,0)">
    <g id="copper1" >
     <!-- <rect width="55" x="10" y="15.5" fill="none" height="55" stroke="rgb(255, 191, 0)" stroke-width="20" />  -->
     <circle stroke="black" id="connector0pin" r="1.98" stroke-width="2.16" cy="3.096"  cx="2.7" fill="black"/>
     <circle stroke="black" id="connector1pin" r="1.98" stroke-width="2.16" cy="3.096"  cx="31.5" fill="black"/>
    </g>
   </g>
  </g>
 </g>
 <g partID="858869341">
  <g transform="translate(555.12,154.08)">
   <g transform="matrix(0,-1,1,0,0,0)">
    <g id="copper1" >
     <circle stroke="black" id="connector0pin" r="1.8" stroke-width="2.16" cy="2.88"  cx="2.88" fill="black"/>
     <circle stroke="black" id="connector1pin" r="1.8" stroke-width="2.16" cy="2.88"  cx="10.0933" fill="black"/>
    </g>
   </g>
  </g>
 </g>
 <g partID="858869481">
  <g transform="translate(670.774,41.8934)">
   <g transform="matrix(0,1,-1,0,0,0)">
    <g id="copper1" >
     <g id="copper0" >
      <circle stroke="black" id="connector0pin" r="2.088" stroke-width="2.16" cy="5.04"  cx="5.04" fill="black"/>
      <circle stroke="black" id="connector1pin" r="2.088" stroke-width="2.16" cy="12.24"  cx="5.04" fill="black"/>
      <circle stroke="black" id="connector2pin" r="2.088" stroke-width="2.16" cy="19.44"  cx="5.04" fill="black"/>
      <circle stroke="black" id="connector3pin" r="2.088" stroke-width="2.16" cy="26.64"  cx="5.04" fill="black"/>
      <circle stroke="black" id="connector4pin" r="2.088" stroke-width="2.16" cy="33.84"  cx="5.04" fill="black"/>
      <circle stroke="black" id="connector5pin" r="2.088" stroke-width="2.16" cy="41.04"  cx="5.04" fill="black"/>
      <circle stroke="black" id="connector6pin" r="2.088" stroke-width="2.16" cy="48.24"  cx="5.04" fill="black"/>
      <circle stroke="black" id="connector7pin" r="2.088" stroke-width="2.16" cy="55.44"  cx="5.04" fill="black"/>
     </g>
    </g>
   </g>
  </g>
 </g>
 <g partID="858869491">
  <g transform="translate(670.774,110.294)">
   <g transform="matrix(0,1,-1,0,0,0)">
    <g id="copper1" >
     <g id="copper0" >
      <circle stroke="black" id="connector0pin" r="2.088" stroke-width="2.16" cy="5.04"  cx="5.04" fill="black"/>
      <circle stroke="black" id="connector1pin" r="2.088" stroke-width="2.16" cy="12.24"  cx="5.04" fill="black"/>
      <circle stroke="black" id="connector2pin" r="2.088" stroke-width="2.16" cy="19.44"  cx="5.04" fill="black"/>
      <circle stroke="black" id="connector3pin" r="2.088" stroke-width="2.16" cy="26.64"  cx="5.04" fill="black"/>
      <circle stroke="black" id="connector4pin" r="2.088" stroke-width="2.16" cy="33.84"  cx="5.04" fill="black"/>
      <circle stroke="black" id="connector5pin" r="2.088" stroke-width="2.16" cy="41.04"  cx="5.04" fill="black"/>
      <circle stroke="black" id="connector6pin" r="2.088" stroke-width="2.16" cy="48.24"  cx="5.04" fill="black"/>
      <circle stroke="black" id="connector7pin" r="2.088" stroke-width="2.16" cy="55.44"  cx="5.04" fill="black"/>
     </g>
    </g>
   </g>
  </g>
 </g>
 <g partID="858869501">
  <g transform="translate(695.974,41.8934)">
   <g transform="matrix(0,1,-1,0,0,0)">
    <g id="copper1" >
     <g id="copper0" >
      <circle stroke="black" id="connector0pin" r="2.088" stroke-width="2.16" cy="5.04"  cx="5.04" fill="black"/>
      <circle stroke="black" id="connector1pin" r="2.088" stroke-width="2.16" cy="12.24"  cx="5.04" fill="black"/>
      <circle stroke="black" id="connector2pin" r="2.088" stroke-width="2.16" cy="19.44"  cx="5.04" fill="black"/>
     </g>
    </g>
   </g>
  </g>
 </g>
 <g partID="858869511">
  <g transform="translate(695.974,110.294)">
   <g transform="matrix(0,1,-1,0,0,0)">
    <g id="copper1" >
     <g id="copper0" >
      <circle stroke="black" id="connector0pin" r="2.088" stroke-width="2.16" cy="5.04"  cx="5.04" fill="black"/>
      <circle stroke="black" id="connector1pin" r="2.088" stroke-width="2.16" cy="12.24"  cx="5.04" fill="black"/>
      <circle stroke="black" id="connector2pin" r="2.088" stroke-width="2.16" cy="19.44"  cx="5.04" fill="black"/>
     </g>
    </g>
   </g>
  </g>
 </g>
 <g partID="858869521">
  <g transform="translate(654.02,233.246)">
   <g transform="matrix(-1,0,0,-1,0,0)">
    <g id="copper1" >
     <g id="copper0" >
      <circle stroke="black" id="connector0pad" r="1.98" stroke-width="2.16" cy="15.6024"  cx="20.8462" fill="black"/>
      <circle stroke="black" id="connector1pad" r="1.98" stroke-width="2.16" cy="15.6024"  cx="2.42064" fill="black"/>
      <circle stroke="black" id="connector2pad" r="1.98" stroke-width="2.16" cy="2.84616"  cx="20.8462" fill="black"/>
      <circle stroke="black" id="connector3pad" r="1.98" stroke-width="2.16" cy="2.84616"  cx="2.42064" fill="black"/>
     </g>
    </g>
   </g>
  </g>
 </g>
 <g partID="858891491">
  <g transform="translate(551.254,148.453)">
   <g transform="matrix(-1,0,0,-1,0,0)">
    <g id="copper1" stroke-width="0" >
     <g id="copper0" stroke-width="0" >
      <rect stroke="black" y="2.34" stroke-width="2.16" x="2.34"  fill="black" height="3.96" width="3.96"/>
      <circle stroke="black" id="connector0pin" r="1.98" stroke-width="2.16" cy="4.32"  cx="4.32" fill="black"/>
      <circle stroke="black" id="connector27pin" r="1.98" stroke-width="2.16" cy="4.32"  cx="25.92" fill="black"/>
      <circle stroke="black" id="connector1pin" r="1.98" stroke-width="2.16" cy="11.52"  cx="4.32" fill="black"/>
      <circle stroke="black" id="connector26pin" r="1.98" stroke-width="2.16" cy="11.52"  cx="25.92" fill="black"/>
      <circle stroke="black" id="connector2pin" r="1.98" stroke-width="2.16" cy="18.72"  cx="4.32" fill="black"/>
      <circle stroke="black" id="connector25pin" r="1.98" stroke-width="2.16" cy="18.72"  cx="25.92" fill="black"/>
      <circle stroke="black" id="connector3pin" r="1.98" stroke-width="2.16" cy="25.92"  cx="4.32" fill="black"/>
      <circle stroke="black" id="connector24pin" r="1.98" stroke-width="2.16" cy="25.92"  cx="25.92" fill="black"/>
      <circle stroke="black" id="connector4pin" r="1.98" stroke-width="2.16" cy="33.12"  cx="4.32" fill="black"/>
      <circle stroke="black" id="connector23pin" r="1.98" stroke-width="2.16" cy="33.12"  cx="25.92" fill="black"/>
      <circle stroke="black" id="connector5pin" r="1.98" stroke-width="2.16" cy="40.32"  cx="4.32" fill="black"/>
      <circle stroke="black" id="connector22pin" r="1.98" stroke-width="2.16" cy="40.32"  cx="25.92" fill="black"/>
      <circle stroke="black" id="connector6pin" r="1.98" stroke-width="2.16" cy="47.52"  cx="4.32" fill="black"/>
      <circle stroke="black" id="connector21pin" r="1.98" stroke-width="2.16" cy="47.52"  cx="25.92" fill="black"/>
      <circle stroke="black" id="connector7pin" r="1.98" stroke-width="2.16" cy="54.72"  cx="4.32" fill="black"/>
      <circle stroke="black" id="connector20pin" r="1.98" stroke-width="2.16" cy="54.72"  cx="25.92" fill="black"/>
      <circle stroke="black" id="connector8pin" r="1.98" stroke-width="2.16" cy="61.92"  cx="4.32" fill="black"/>
      <circle stroke="black" id="connector19pin" r="1.98" stroke-width="2.16" cy="61.92"  cx="25.92" fill="black"/>
      <circle stroke="black" id="connector9pin" r="1.98" stroke-width="2.16" cy="69.12"  cx="4.32" fill="black"/>
      <circle stroke="black" id="connector18pin" r="1.98" stroke-width="2.16" cy="69.12"  cx="25.92" fill="black"/>
      <circle stroke="black" id="connector10pin" r="1.98" stroke-width="2.16" cy="76.32"  cx="4.32" fill="black"/>
      <circle stroke="black" id="connector17pin" r="1.98" stroke-width="2.16" cy="76.32"  cx="25.92" fill="black"/>
      <circle stroke="black" id="connector11pin" r="1.98" stroke-width="2.16" cy="83.52"  cx="4.32" fill="black"/>
      <circle stroke="black" id="connector16pin" r="1.98" stroke-width="2.16" cy="83.52"  cx="25.92" fill="black"/>
      <circle stroke="black" id="connector12pin" r="1.98" stroke-width="2.16" cy="90.72"  cx="4.32" fill="black"/>
      <circle stroke="black" id="connector15pin" r="1.98" stroke-width="2.16" cy="90.72"  cx="25.92" fill="black"/>
      <circle stroke="black" id="connector13pin" r="1.98" stroke-width="2.16" cy="97.92"  cx="4.32" fill="black"/>
      <circle stroke="black" id="connector14pin" r="1.98" stroke-width="2.16" cy="97.92"  cx="25.92" fill="black"/>
     </g>
    </g>
   </g>
  </g>
 </g>
 <g partID="858990391">
  <g transform="translate(383.494,235.574)">
   <g transform="matrix(0,-1,1,0,0,0)">
    <g id="copper1" >
     <g id="copper0" >
      <circle stroke="black" id="connector0pin" r="2.088" stroke-width="2.16" cy="5.04"  cx="5.04" fill="black"/>
      <circle stroke="black" id="connector1pin" r="2.088" stroke-width="2.16" cy="12.24"  cx="5.04" fill="black"/>
      <circle stroke="black" id="connector2pin" r="2.088" stroke-width="2.16" cy="19.44"  cx="5.04" fill="black"/>
      <circle stroke="black" id="connector3pin" r="2.088" stroke-width="2.16" cy="26.64"  cx="5.04" fill="black"/>
      <circle stroke="black" id="connector4pin" r="2.088" stroke-width="2.16" cy="33.84"  cx="5.04" fill="black"/>
      <circle stroke="black" id="connector5pin" r="2.088" stroke-width="2.16" cy="41.04"  cx="5.04" fill="black"/>
      <circle stroke="black" id="connector6pin" r="2.088" stroke-width="2.16" cy="48.24"  cx="5.04" fill="black"/>
      <circle stroke="black" id="connector7pin" r="2.088" stroke-width="2.16" cy="55.44"  cx="5.04" fill="black"/>
     </g>
    </g>
   </g>
  </g>
 </g>
 <g partID="858987771">
  <g transform="translate(214.294,235.574)">
   <g transform="matrix(0,-1,1,0,0,0)">
    <g id="copper1" >
     <g id="copper0" >
      <circle stroke="black" id="connector0pin" r="2.088" stroke-width="2.16" cy="5.04"  cx="5.04" fill="black"/>
      <circle stroke="black" id="connector1pin" r="2.088" stroke-width="2.16" cy="12.24"  cx="5.04" fill="black"/>
      <circle stroke="black" id="connector2pin" r="2.088" stroke-width="2.16" cy="19.44"  cx="5.04" fill="black"/>
      <circle stroke="black" id="connector3pin" r="2.088" stroke-width="2.16" cy="26.64"  cx="5.04" fill="black"/>
      <circle stroke="black" id="connector4pin" r="2.088" stroke-width="2.16" cy="33.84"  cx="5.04" fill="black"/>
      <circle stroke="black" id="connector5pin" r="2.088" stroke-width="2.16" cy="41.04"  cx="5.04" fill="black"/>
      <circle stroke="black" id="connector6pin" r="2.088" stroke-width="2.16" cy="48.24"  cx="5.04" fill="black"/>
      <circle stroke="black" id="connector7pin" r="2.088" stroke-width="2.16" cy="55.44"  cx="5.04" fill="black"/>
     </g>
    </g>
   </g>
  </g>
 </g>
 <g partID="858983611">
  <g transform="translate(45.0934,235.574)">
   <g transform="matrix(0,-1,1,0,0,0)">
    <g id="copper1" >
     <g id="copper0" >
      <circle stroke="black" id="connector0pin" r="2.088" stroke-width="2.16" cy="5.04"  cx="5.04" fill="black"/>
      <circle stroke="black" id="connector1pin" r="2.088" stroke-width="2.16" cy="12.24"  cx="5.04" fill="black"/>
      <circle stroke="black" id="connector2pin" r="2.088" stroke-width="2.16" cy="19.44"  cx="5.04" fill="black"/>
      <circle stroke="black" id="connector3pin" r="2.088" stroke-width="2.16" cy="26.64"  cx="5.04" fill="black"/>
      <circle stroke="black" id="connector4pin" r="2.088" stroke-width="2.16" cy="33.84"  cx="5.04" fill="black"/>
      <circle stroke="black" id="connector5pin" r="2.088" stroke-width="2.16" cy="41.04"  cx="5.04" fill="black"/>
      <circle stroke="black" id="connector6pin" r="2.088" stroke-width="2.16" cy="48.24"  cx="5.04" fill="black"/>
      <circle stroke="black" id="connector7pin" r="2.088" stroke-width="2.16" cy="55.44"  cx="5.04" fill="black"/>
     </g>
    </g>
   </g>
  </g>
 </g>
 <g partID="859009351">
  <g transform="translate(664.56,235.44)">
   <g transform="matrix(0,-1,1,0,0,0)">
    <g id="copper1" >
     <g id="copper0" >
      <circle stroke="black" id="connector0pin" r="2.088" stroke-width="2.16" cy="5.04"  cx="5.04" fill="black"/>
      <circle stroke="black" id="connector1pin" r="2.088" stroke-width="2.16" cy="12.24"  cx="5.04" fill="black"/>
      <circle stroke="black" id="connector2pin" r="2.088" stroke-width="2.16" cy="19.44"  cx="5.04" fill="black"/>
      <circle stroke="black" id="connector3pin" r="2.088" stroke-width="2.16" cy="26.64"  cx="5.04" fill="black"/>
     </g>
    </g>
   </g>
  </g>
 </g>
 <g partID="858920971">
  <g transform="translate(592.56,218.16)">
   <g id="copper1" >
    <g id="copper0" >
     <circle stroke="black" id="connector0pin" r="2.088" stroke-width="2.16" cy="5.04"  cx="5.04" fill="black"/>
     <circle stroke="black" id="connector1pin" r="2.088" stroke-width="2.16" cy="12.24"  cx="5.04" fill="black"/>
    </g>
   </g>
  </g>
 </g>
 <g partID="858920951">
  <g transform="translate(599.76,218.16)">
   <g id="copper1" >
    <g id="copper0" >
     <circle stroke="black" id="connector0pin" r="2.088" stroke-width="2.16" cy="5.04"  cx="5.04" fill="black"/>
     <circle stroke="black" id="connector1pin" r="2.088" stroke-width="2.16" cy="12.24"  cx="5.04" fill="black"/>
    </g>
   </g>
  </g>
 </g>
 <g partID="858920581">
  <g transform="translate(585.36,218.16)">
   <g id="copper1" >
    <g id="copper0" >
     <circle stroke="black" id="connector0pin" r="2.088" stroke-width="2.16" cy="5.04"  cx="5.04" fill="black"/>
     <circle stroke="black" id="connector1pin" r="2.088" stroke-width="2.16" cy="12.24"  cx="5.04" fill="black"/>
    </g>
   </g>
  </g>
 </g>
 <g partID="858920521">
  <g transform="translate(606.96,218.16)">
   <g id="copper1" >
    <g id="copper0" >
     <circle stroke="black" id="connector0pin" r="2.088" stroke-width="2.16" cy="5.04"  cx="5.04" fill="black"/>
     <circle stroke="black" id="connector1pin" r="2.088" stroke-width="2.16" cy="12.24"  cx="5.04" fill="black"/>
    </g>
   </g>
  </g>
 </g>
 <g partID="858998091">
  <g transform="translate(614.16,218.16)">
   <g id="copper1" >
    <g id="copper0" >
     <circle stroke="black" id="connector0pin" r="2.088" stroke-width="2.16" cy="5.04"  cx="5.04" fill="black"/>
     <circle stroke="black" id="connector1pin" r="2.088" stroke-width="2.16" cy="12.24"  cx="5.04" fill="black"/>
    </g>
   </g>
  </g>
 </g>
</svg>
